<svg width="171" height="161" viewBox="0 0 171 161" fill="none" xmlns="http://www.w3.org/2000/svg">
<g clip-path="url(#clip0)">
<path d="M46.8531 91.361V135.836L39.4129 147.96L38.8466 148.882H9.48931L8.89613 91.361H46.8531Z" fill="#8E8E8E"/>
<path opacity="0.1" d="M46.8531 91.361V135.836L39.4129 147.96L38.9563 91.361H46.8531Z" fill="black"/>
<path d="M117.726 90.1748V134.65L125.166 146.774L125.733 147.696H155.09L155.683 90.1748H117.726Z" fill="#8E8E8E"/>
<path opacity="0.1" d="M117.726 90.1748V134.65L125.166 146.774L125.623 90.1748H117.726Z" fill="black"/>
<path d="M-2.9606e-05 89.2856V91.9539H159.538V88.0994L144.711 80.3903H13.0476L-2.9606e-05 89.2856Z" fill="#8E8E8E"/>
<path opacity="0.1" d="M-2.9606e-05 89.2856V91.9539H159.538V88.0994L-2.9606e-05 89.2856Z" fill="black"/>
<path d="M136.704 102.628H143.822L146.787 100.552H133.443L136.704 102.628Z" fill="#3F3D56"/>
<path d="M136.704 111.227H143.822L146.787 109.151H133.443L136.704 111.227Z" fill="#3F3D56"/>
<path d="M136.704 123.383H143.822L146.787 121.307H133.443L136.704 123.383Z" fill="#3F3D56"/>
<path d="M136.704 135.54H143.822L146.787 133.464H133.443L136.704 135.54Z" fill="#3F3D56"/>
<path d="M27.8747 103.814H20.7576L17.7923 101.738H31.1366L27.8747 103.814Z" fill="#3F3D56"/>
<path d="M27.8747 112.412H20.7576L17.7923 110.337H31.1366L27.8747 112.412Z" fill="#3F3D56"/>
<path d="M27.8747 124.569H20.7576L17.7923 122.494H31.1366L27.8747 124.569Z" fill="#3F3D56"/>
<path d="M27.8747 136.726H20.7576L17.7923 134.65H31.1366L27.8747 136.726Z" fill="#3F3D56"/>
<path d="M23.0282 28.9592H82.943C83.2406 28.9591 83.5353 29.0177 83.8102 29.1315C84.0851 29.2454 84.3349 29.4123 84.5453 29.6227C84.7558 29.8331 84.9227 30.0828 85.0365 30.3577C85.1504 30.6326 85.209 30.9273 85.2089 31.2248V71.5799C85.209 71.8774 85.1504 72.172 85.0365 72.4469C84.9227 72.7218 84.7558 72.9716 84.5453 73.182C84.3349 73.3924 84.0851 73.5593 83.8102 73.6731C83.5353 73.7869 83.2406 73.8455 82.943 73.8455H60.1988L61.0509 79.2851C61.0509 79.2851 65.9206 81.8718 62.4966 81.9478C59.0726 82.0239 42.9419 81.9478 42.9419 81.9478C42.9419 81.9478 39.8223 81.9478 44.7681 79.209L45.5696 73.8455H23.0282C22.7306 73.8455 22.4359 73.7869 22.161 73.6731C21.8861 73.5593 21.6363 73.3924 21.4258 73.182C21.2154 72.9716 21.0485 72.7218 20.9347 72.4469C20.8208 72.172 20.7622 71.8774 20.7623 71.5799V31.2248C20.7622 30.9273 20.8208 30.6326 20.9347 30.3577C21.0485 30.0828 21.2154 29.8331 21.4258 29.6227C21.6363 29.4123 21.8861 29.2454 22.161 29.1315C22.4359 29.0177 22.7306 28.9591 23.0282 28.9592V28.9592Z" fill="#3F3D56"/>
<path d="M22.9308 31.3557H83.0404V64.9824H22.9308V31.3557Z" fill="#DCDBDB"/>
<path d="M52.9856 30.6709C52.7755 30.6709 52.6051 30.5006 52.6051 30.2905C52.6051 30.0805 52.7755 29.9102 52.9856 29.9102C53.1957 29.9102 53.366 30.0805 53.366 30.2905C53.366 30.5006 53.1957 30.6709 52.9856 30.6709Z" fill="#F2F2F2"/>
<path d="M52.9856 72.2098C52.1872 72.2098 51.5399 71.5627 51.5399 70.7643C51.5399 69.966 52.1872 69.3188 52.9856 69.3188C53.784 69.3188 54.4313 69.966 54.4313 70.7643C54.4313 71.5627 53.784 72.2098 52.9856 72.2098Z" fill="#F2F2F2"/>
<path d="M55.2384 86.0561V86.817H96.1737V86.2082L96.1175 86.0561L95.1086 83.3173H56.0753L55.2384 86.0561Z" fill="#3F3D56"/>
<path d="M39.4851 85.3113C39.5597 85.6301 39.8412 85.9663 40.4773 86.2843C42.7599 87.4255 47.4013 85.98 47.4013 85.98C47.4013 85.98 50.9775 85.3714 50.9775 83.7737C50.8771 83.705 50.7724 83.6427 50.664 83.5874C49.7043 83.0797 46.5223 81.827 40.8803 83.6404C40.4646 83.7709 40.0933 84.0141 39.8078 84.3431C39.6813 84.4675 39.5861 84.6201 39.53 84.7884C39.4739 84.9567 39.4585 85.1359 39.4851 85.3113Z" fill="#3F3D56"/>
<path opacity="0.1" d="M39.4851 85.3113C42.2791 86.3817 44.7695 86.4616 47.3253 84.6867C48.2917 83.9723 49.4621 83.5869 50.664 83.5874C49.7043 83.0797 46.5223 81.827 40.8803 83.6404C40.4646 83.7709 40.0933 84.0141 39.8078 84.3431C39.6813 84.4675 39.5861 84.6201 39.53 84.7884C39.4739 84.9567 39.4585 85.1359 39.4851 85.3113Z" fill="black"/>
<path d="M42.9882 84.6867C42.4419 84.6867 41.9991 84.5504 41.9991 84.3824C41.9991 84.2143 42.4419 84.0781 42.9882 84.0781C43.5345 84.0781 43.9774 84.2143 43.9774 84.3824C43.9774 84.5504 43.5345 84.6867 42.9882 84.6867Z" fill="#F2F2F2"/>
<path opacity="0.1" d="M55.2384 86.0561V86.817H96.1737V86.2083L96.1175 86.0561H55.2384Z" fill="black"/>
<path d="M148.239 1.03165e-06C148.655 -0.0341048 149.071 0.0588157 149.432 0.26645C149.787 0.509459 150.011 0.935185 150.239 1.33135C151.112 2.86413 152.294 4.19892 153.71 5.25119C154.741 6.00656 156.052 6.94842 155.876 8.34113C155.783 8.80107 155.613 9.24203 155.373 9.64549C154.422 11.5657 151.826 13.0496 152.081 15.2406C151.136 13.6585 152.4 12.8762 151.455 11.2941C151.005 10.5406 150.223 9.6901 149.543 10.1633C149.316 10.3217 149.166 10.6059 148.929 10.7449C148.364 11.0766 147.763 10.4424 147.262 9.99326C145.536 8.44437 143.082 8.85014 140.935 9.33274C139.921 9.56057 138.808 9.85948 138.209 10.8283C137.421 12.102 138.957 13.4777 139.345 14.9178C139.377 15.0405 139.379 15.1691 139.35 15.2925C139.321 15.4159 139.263 15.5305 139.18 15.6265C139.097 15.7225 138.992 15.797 138.874 15.8436C138.757 15.8903 138.629 15.9077 138.503 15.8944C137.859 15.8308 137.096 15.7788 137.057 15.496C136.247 15.5249 135.253 15.4331 134.906 14.5891C134.8 14.2551 134.744 13.9073 134.74 13.557C134.612 12.1392 134.01 10.8458 133.612 9.4964C133.213 8.14703 133.04 6.56566 133.712 5.36929C133.953 4.97124 134.249 4.61038 134.594 4.29812C138.412 0.603764 143.432 -0.00548277 148.239 1.03165e-06Z" fill="#2F2E41"/>
<path d="M151.251 18.0082C151.251 18.0082 150.42 24.9268 153.465 25.4803C156.509 26.0338 150.697 35.4432 150.697 35.4432L136.858 37.1037L140.179 26.0338C140.179 26.0338 142.394 25.2036 141.01 19.6686C139.626 14.1337 151.251 18.0082 151.251 18.0082Z" fill="#FFB8B8"/>
<path d="M159.692 136.871L158.585 152.092H152.773L154.434 136.871H159.692Z" fill="#FFB8B8"/>
<path d="M117.068 108.089L116.238 120.82L109.872 118.052L112.363 107.536L117.068 108.089Z" fill="#FFB8B8"/>
<path d="M163.844 78.7542C163.844 78.7542 163.567 94.8055 161.907 100.064C160.246 105.322 160.523 105.599 160.8 106.429C161.076 107.259 161.353 106.706 161.353 108.089C161.353 109.473 161.907 131.336 161.353 133.273C160.8 135.211 163.014 138.532 161.353 138.808C159.692 139.085 151.943 138.808 151.666 137.148C151.389 135.487 153.88 134.934 152.773 133.827C151.666 132.72 150.005 110.027 150.005 110.027L146.13 94.252L138.934 85.9496H123.711L119.005 104.215C119.005 104.215 120.943 109.473 119.559 109.473C118.175 109.473 109.872 111.134 109.872 105.045C109.872 98.9567 112.639 80.9681 113.193 80.4146C113.747 79.8612 112.916 77.9239 113.747 77.0937C114.577 76.2634 124.264 70.4517 127.862 69.3448C131.461 68.2378 136.508 66.9202 136.508 66.9202L163.844 78.7542Z" fill="#131316"/>
<path d="M109.872 115.838C109.872 115.838 114.023 114.455 115.961 118.606C117.898 122.757 117.068 123.864 117.068 123.864C117.068 123.864 110.702 126.078 109.595 124.971C109.113 124.489 107.584 124.322 106.009 124.287C103.611 124.233 102.973 120.841 105.238 120.051C105.306 120.027 105.374 120.007 105.443 119.99C107.657 119.436 109.872 115.838 109.872 115.838Z" fill="#2F2E41"/>
<path d="M145.023 22.5744C140.437 22.5744 136.719 18.8573 136.719 14.272C136.719 9.68672 140.437 5.9696 145.023 5.9696C149.609 5.9696 153.326 9.68672 153.326 14.272C153.326 18.8573 149.609 22.5744 145.023 22.5744Z" fill="#FFB8B8"/>
<path d="M155.818 28.9397C155.818 28.9397 142.255 31.7072 138.934 27.2792C135.612 22.8512 134.228 39.7328 134.228 39.7328L132.568 57.4447L135.059 67.1308C135.059 67.1308 148.068 77.6472 152.219 78.4775C156.371 79.3077 162.737 79.8612 162.737 79.8612C162.737 79.8612 160.8 49.1422 160.8 48.5887C160.8 48.0353 155.818 28.9397 155.818 28.9397Z" fill="#00088D"/>
<path d="M151.693 23.7494C151.693 23.7494 154.71 22.021 155.541 23.6815C156.371 25.342 164.121 29.4932 164.951 29.4932C165.782 29.4932 163.291 52.4632 164.398 55.2307C165.505 57.9982 170.764 78.2007 167.719 79.8612C164.675 81.5217 166.889 78.2007 163.844 82.3519C160.8 86.5031 145.853 86.5031 145.023 84.8427C144.193 83.1822 151.666 70.7285 150.282 59.1052C148.898 47.4818 146.684 31.4304 148.621 29.2164C150.559 27.0025 151.693 23.7494 151.693 23.7494Z" fill="#2F2E41"/>
<path d="M141.702 25.6186L141.316 24.2921C141.316 24.2921 129.8 28.1094 129.246 30.6001C128.693 33.0908 128.97 50.5259 130.907 51.9097C132.845 53.2934 135.612 55.5074 133.675 58.8283C131.737 62.1493 129.523 65.747 127.862 66.0238C126.202 66.3005 123.157 68.2377 123.987 70.175C124.818 72.1122 134.782 68.5145 134.782 68.5145C134.782 68.5145 141.425 63.533 141.148 55.7841C140.871 48.0352 141.702 25.6186 141.702 25.6186Z" fill="#2F2E41"/>
<path d="M132.014 58.2749L138.657 70.7285C138.657 70.7285 148.344 80.6914 142.809 81.7984C137.273 82.9054 134.228 72.6658 134.228 72.6658L127.032 62.4261L132.014 58.2749Z" fill="#FFB8B8"/>
<path d="M147.835 2.17233C148.17 2.14753 148.505 2.21255 148.806 2.36065C149.078 2.55949 149.303 2.81664 149.463 3.11331C150.201 4.22367 151.163 5.16738 152.288 5.88383C153.127 6.41773 154.195 7.08342 154.051 8.06778C153.973 8.39782 153.834 8.71046 153.642 8.98969C152.865 10.3606 152.555 11.9472 152.761 13.5096L150.452 10.1549C150.086 9.62236 149.449 9.02123 148.896 9.35566C148.711 9.46764 148.589 9.66848 148.396 9.76673C147.936 10.0012 147.447 9.55298 147.039 9.2355C145.635 8.14076 143.637 8.42755 141.889 8.76865C141.064 8.92968 140.157 9.14095 139.669 9.82568C138.859 10.9636 139.705 12.6078 139.232 13.9223C139.1 13.8296 138.987 13.7112 138.901 13.5742C138.815 13.4373 138.758 13.2844 138.732 13.1248C138.072 13.1452 137.264 13.0803 136.981 12.4838C136.895 12.25 136.849 12.0034 136.845 11.7543C136.742 10.7522 136.252 9.83804 135.927 8.88432C135.603 7.93059 135.462 6.81289 136.009 5.9673C136.21 5.6808 136.451 5.42564 136.727 5.2102C139.835 2.59906 143.921 2.16845 147.835 2.17233Z" fill="#2F2E41"/>
<path d="M132.014 29.4932L129.435 30.1776C129.435 30.1776 123.434 45.5445 124.818 56.0609C126.202 66.5773 127.032 64.3634 127.032 64.3634C127.032 64.3634 129.246 59.3819 134.228 60.4889L132.014 29.4932Z" fill="#2F2E41"/>
<path d="M159.309 150.081C159.976 150.988 159.843 152.284 160.434 153.242C160.946 154.073 161.912 154.508 162.553 155.245C162.758 155.489 162.94 155.751 163.098 156.028C163.693 157.024 164.176 158.301 163.59 159.302C163.119 160.107 162.129 160.422 161.221 160.637C160.073 160.908 158.88 161.125 157.719 160.918C156.558 160.71 155.423 159.999 155.009 158.895C154.928 158.617 154.831 158.345 154.719 158.078C154.09 156.839 152.116 156.825 151.472 155.594C151.021 154.732 151.436 153.691 151.85 152.811L153.115 150.124C153.535 149.232 155.236 149.745 156.123 149.531C157.281 149.253 158.477 148.946 159.309 150.081Z" fill="#2F2E41"/>
<path d="M168.549 63.8098L156.925 81.7984C156.925 81.7984 149.728 90.9311 147.514 86.7799C145.3 82.6287 155.264 75.71 155.264 75.71L162.737 61.8726L168.549 63.8098Z" fill="#FFB8B8"/>
<path d="M162.737 30.0467L164.951 29.4932C164.951 29.4932 169.38 30.8769 170.487 36.6886C171.594 42.5003 170.764 65.7471 169.38 66.0238C167.996 66.3006 162.545 61.9761 161.672 62.893C160.8 63.8098 163.567 59.1051 162.737 56.6144C161.907 54.1237 162.737 30.0467 162.737 30.0467Z" fill="#2F2E41"/>
<path d="M58.675 42.3998H65.8287V44.1218H58.675V42.3998Z" fill="#6C63FF"/>
<path d="M33.9018 42.3998H36.4189V44.1218H33.9018V42.3998Z" fill="#6C63FF"/>
<path d="M28.8677 42.3998H31.3847V44.1218H28.8677V42.3998Z" fill="#6C63FF"/>
<path d="M39.0684 42.3998H56.1579V44.1218H39.0684V42.3998Z" fill="#6C63FF"/>
<path d="M67.6834 53.5264H74.8371V55.2484H67.6834V53.5264Z" fill="#6C63FF"/>
<path d="M42.9102 53.5264H45.4273V55.2484H42.9102V53.5264Z" fill="#6C63FF"/>
<path d="M37.8761 53.5264H40.3932V55.2484H37.8761V53.5264Z" fill="#6C63FF"/>
<path d="M48.0768 53.5264H65.1663V55.2484H48.0768V53.5264Z" fill="#6C63FF"/>
<path d="M38.1411 46.2411H45.2948V47.9631H38.1411V46.2411Z" fill="#6C63FF"/>
<path d="M28.4703 46.2411H35.624V47.9631H28.4703V46.2411Z" fill="#6C63FF"/>
<path d="M72.32 46.2411H74.8371V47.9631H72.32V46.2411Z" fill="#6C63FF"/>
<path d="M67.2859 46.2411H69.8029V47.9631H67.2859V46.2411Z" fill="#6C63FF"/>
<path d="M47.6794 46.2411H64.7689V47.9631H47.6794V46.2411Z" fill="#6C63FF"/>
<path d="M52.9784 49.95H60.1322V51.672H52.9784V49.95Z" fill="#6C63FF"/>
<path d="M62.6492 49.95H69.8029V51.672H62.6492V49.95Z" fill="#6C63FF"/>
<path d="M72.32 49.95H74.8371V51.672H72.32V49.95Z" fill="#6C63FF"/>
<path d="M28.4702 49.95H30.9873V51.672H28.4702V49.95Z" fill="#6C63FF"/>
<path d="M33.5044 49.95H50.5938V51.672H33.5044V49.95Z" fill="#6C63FF"/>
</g>
<defs>
<clipPath id="clip0">
<rect width="171" height="161" fill="white" transform="matrix(-1 0 0 1 171 0)"/>
</clipPath>
</defs>
</svg>
