<svg width="173" height="123" viewBox="0 0 173 123" fill="none" xmlns="http://www.w3.org/2000/svg">
<path d="M166.744 25.8792L168.004 26.5097C168.004 26.5097 174.834 43.6382 172.522 47.7365C170.211 51.8347 162.961 59.5058 162.961 59.5058L161.595 55.6177L167.181 43.5051L166.744 25.8792Z" fill="#00088D"/>
<path opacity="0.1" d="M167.635 43.7145L167.684 43.6089L167.681 43.4927L167.264 26.6985L167.609 26.8712C167.611 26.8758 167.613 26.8804 167.615 26.8852C167.664 27.0105 167.736 27.1954 167.826 27.4323C168.008 27.9063 168.264 28.5885 168.565 29.4202C169.167 31.0842 169.945 33.3434 170.651 35.7281C171.357 38.1158 171.987 40.6148 172.297 42.7623C172.452 43.8364 172.525 44.8087 172.492 45.6277C172.459 46.4559 172.319 47.0793 172.087 47.4909C170.959 49.4902 168.601 52.3971 166.497 54.8309C165.45 56.0416 164.474 57.125 163.761 57.9059C163.531 58.1576 163.328 58.3777 163.159 58.5605L162.134 55.6432L167.635 43.7145Z" fill="#00088D" stroke="black"/>
<path d="M165.378 111.522C165.378 111.522 167.164 115.62 166.218 115.936C165.273 116.251 164.117 116.251 162.961 116.251C161.805 116.251 160.439 115.83 160.229 115.41C160.019 114.99 161.07 112.258 161.07 112.258L165.378 111.522Z" fill="#575A89"/>
<path d="M141.317 113.624C141.317 113.624 142.472 117.302 141.947 117.512C141.422 117.722 139.741 118.668 138.795 118.352C137.849 118.037 136.378 117.302 136.063 116.986C135.748 116.671 136.063 114.99 136.063 114.99L137.534 112.888L141.317 113.624Z" fill="#575A89"/>
<path d="M162.015 58.9804L163.522 59.5058C163.522 59.5058 163.907 63.0786 163.486 64.3396C163.066 65.6006 162.12 74.7429 162.646 76.6344C163.171 78.5259 162.856 81.5733 162.856 81.5733C162.856 81.5733 166.008 91.8715 165.378 94.0782C164.747 96.285 164.852 99.4374 165.483 101.014C166.113 102.59 166.638 103.22 166.323 104.481C166.008 105.742 165.378 106.373 166.008 107.424C166.638 108.475 167.899 108.79 167.269 109.736C166.638 110.681 166.008 111.417 166.218 112.047C166.428 112.678 160.65 113.834 160.124 112.888C160.124 112.888 161.805 111.417 160.124 110.576C158.443 109.736 158.968 106.583 158.968 106.583C158.968 106.583 156.026 94.4985 156.132 93.5528C156.237 92.607 151.508 77.8954 151.508 77.8954C151.508 77.8954 144.574 98.912 144.154 99.8578C143.733 100.804 144.679 103.115 144.154 103.746C143.628 104.376 144.364 105.953 143.628 106.583C142.893 107.214 144.889 109.525 143.628 110.366C142.367 111.207 141.737 113.834 141.842 114.359C141.947 114.885 136.589 114.254 136.589 113.519C136.589 112.783 136.694 112.153 136.168 110.892C135.643 109.631 135.328 108.79 135.748 108.37C136.168 107.949 136.484 107.424 136.063 105.953C135.643 104.481 136.694 99.9629 136.378 99.1222C136.063 98.2815 136.168 92.607 136.168 92.607C136.168 92.607 137.219 84.3055 136.904 82.9394C136.589 81.5733 136.904 81.258 137.009 80.7326C137.114 80.2072 137.744 74.5327 138.165 73.692C138.585 72.8514 139.11 58.455 141.527 57.7194C143.943 56.9838 162.015 58.9804 162.015 58.9804Z" fill="#131316"/>
<path d="M162.856 115.305C162.856 115.305 166.638 114.675 166.849 115.305C167.059 115.936 167.689 120.874 166.218 120.98C164.747 121.085 162.226 121.4 161.805 120.454C161.385 119.508 159.389 118.878 159.389 118.878C159.389 118.878 156.447 118.037 156.447 117.091C156.447 116.146 156.552 114.675 157.077 114.569C157.602 114.464 159.704 113.308 159.704 112.888C159.704 112.468 162.856 115.305 162.856 115.305Z" fill="#070707"/>
<path d="M139.215 116.986C139.215 116.986 141.947 116.146 142.578 116.671C143.208 117.197 144.048 122.976 142.578 122.871C141.107 122.766 137.219 123.396 137.009 122.556C136.799 121.715 133.962 121.505 133.962 121.505C133.962 121.505 130.915 120.034 131.125 118.458C131.335 116.881 131.65 116.356 132.911 116.251C134.172 116.146 135.118 114.675 135.223 114.569C135.328 114.464 136.254 113.696 136.369 114.553C136.483 115.41 137.849 117.302 139.215 116.986Z" fill="#070707"/>
<path d="M147.831 15.1607C151.371 15.1607 154.24 12.2908 154.24 8.75061C154.24 5.21043 151.371 2.34054 147.831 2.34054C144.291 2.34054 141.422 5.21043 141.422 8.75061C141.422 12.2908 144.291 15.1607 147.831 15.1607Z" fill="#A0616A"/>
<path d="M153.4 10.2218C153.4 10.2218 153.82 17.2623 155.396 17.8928C156.972 18.5233 147.411 18.5233 147.411 18.5233C147.411 18.5233 147.306 14.1098 145.94 13.059C144.574 12.0082 153.4 10.2218 153.4 10.2218Z" fill="#A0616A"/>
<path d="M155.921 16.3166C155.921 16.3166 149.407 13.8997 147.096 17.6827C147.096 17.6827 139.741 21.1504 139.215 23.2521C138.69 25.3538 143.628 41.1163 143.628 41.1163C143.628 41.1163 143.628 54.1466 142.578 55.5127C141.527 56.8788 139.531 58.3499 140.896 58.6652C142.262 58.9804 163.697 61.2922 163.591 59.9262C163.486 58.5601 162.12 57.4042 163.591 56.5635C165.062 55.7228 163.802 54.7771 164.747 52.0449C165.693 49.3128 168.004 26.7199 168.004 26.7199C168.004 26.7199 166.428 23.8826 166.113 23.5674C165.798 23.2521 155.921 16.3166 155.921 16.3166Z" fill="#00088D"/>
<path d="M137.114 62.3431C137.114 62.3431 133.016 71.5904 136.589 72.8514C140.161 74.1124 139.951 63.0787 139.951 63.0787L137.114 62.3431Z" fill="#A0616A"/>
<path d="M150.905 9.94276C150.534 9.19826 149.978 8.33938 149.147 8.38471C148.727 8.40764 148.365 8.66904 147.99 8.86093C147.616 9.05282 147.136 9.17177 146.794 8.92722C146.293 8.56951 146.448 7.72108 146.001 7.29907C145.512 6.83838 144.528 7.09559 144.213 6.50246C144.044 6.18576 144.18 5.79281 144.107 5.44169C143.595 5.48539 143.08 5.42555 142.593 5.26573C142.118 5.07343 141.708 4.62786 141.721 4.11611C141.735 3.94177 141.784 3.77201 141.864 3.61678C141.945 3.46154 142.056 3.32396 142.19 3.21208C142.836 2.6247 143.77 2.51206 144.567 2.15583C145.202 1.87234 145.753 1.43053 146.377 1.12387C147.45 0.596091 148.687 0.493742 149.88 0.584859C151.687 0.723015 153.515 1.323 154.826 2.57555C156.137 3.8281 156.831 5.80417 156.265 7.52694C155.945 8.50315 155.266 9.32368 154.887 10.2787C154.655 10.9322 154.494 11.609 154.407 12.2971L154.141 13.9292C154.183 13.6752 153.625 13.0381 153.442 12.8865C153.043 12.5558 152.463 12.668 152.092 12.3617C151.545 11.9087 151.228 10.5887 150.905 9.94276Z" fill="#2F2E41"/>
<path opacity="0.1" d="M141.632 22.5165L139.951 23.5674C139.951 23.5674 137.219 40.0654 137.534 42.3773C137.849 44.6891 136.273 57.7194 136.799 58.7702C137.324 59.8211 137.534 60.0312 137.534 60.6617C137.534 61.2922 136.063 63.6041 137.009 64.0244C137.954 64.4447 141.422 65.1803 141.422 64.0244C141.422 62.8685 140.791 61.2922 141.947 60.5566C143.103 59.8211 143.943 55.0923 143.943 55.0923C143.943 55.0923 144.469 50.2585 144.994 49.3127C145.52 48.367 146.255 44.8992 146.255 43.4281C146.255 41.9569 147.516 35.9672 146.78 32.9198C146.045 29.8723 145.835 21.6759 141.632 22.5165Z" fill="black"/>
<path d="M140.896 22.2013L139.215 23.2521C139.215 23.2521 136.484 39.7502 136.799 42.062C137.114 44.3738 135.538 57.4041 136.063 58.455C136.589 59.5058 136.799 59.716 136.799 60.3465C136.799 60.977 135.328 63.2888 136.273 63.7091C137.219 64.1295 140.686 64.8651 140.686 63.7091C140.686 62.5532 140.056 60.977 141.212 60.2414C142.367 59.5058 143.208 54.7771 143.208 54.7771C143.208 54.7771 143.733 49.9432 144.259 48.9975C144.784 48.0517 145.519 44.584 145.519 43.1128C145.519 41.6417 146.78 35.6519 146.045 32.6045C145.309 29.5571 145.099 21.3606 140.896 22.2013Z" fill="#00088D"/>
<path d="M123.711 0H0V62.0739H123.711V0Z" fill="#8E8E8E"/>
<path d="M118.03 5.05008H5.6806V57.0238H118.03V5.05008Z" fill="#DCDBDB"/>
<path d="M7.88074 9.26756L7.58322 9.56512L22.6699 24.6536L27.4037 19.9192L35.714 28.2308L45.9181 18.0255L63.2755 35.3852L71.1652 27.4942L88.4174 44.7489L98.0955 35.0695L115.83 52.8064L116.128 52.5088L98.0955 34.4744L88.4174 44.1538L71.1652 26.8993L63.2755 34.7901L45.9181 17.4303L35.714 27.6357L27.4037 19.324L22.6699 24.0587L7.88074 9.26756Z" fill="#6C63FF"/>
<path d="M46.6545 20.5686C48.0489 20.5686 49.1793 19.4381 49.1793 18.0435C49.1793 16.649 48.0489 15.5185 46.6545 15.5185C45.2602 15.5185 44.1298 16.649 44.1298 18.0435C44.1298 19.4381 45.2602 20.5686 46.6545 20.5686Z" fill="#6C63FF"/>
<path d="M62.8548 37.1917C64.2492 37.1917 65.3795 36.0613 65.3795 34.6667C65.3795 33.2722 64.2492 32.1417 62.8548 32.1417C61.4604 32.1417 60.3301 33.2722 60.3301 34.6667C60.3301 36.0613 61.4604 37.1917 62.8548 37.1917Z" fill="#6C63FF"/>
<path d="M97.9903 37.1917C99.3847 37.1917 100.515 36.0613 100.515 34.6667C100.515 33.2722 99.3847 32.1417 97.9903 32.1417C96.596 32.1417 95.4656 33.2722 95.4656 34.6667C95.4656 36.0613 96.596 37.1917 97.9903 37.1917Z" fill="#6C63FF"/>
</svg>
