<svg width="165" height="125" viewBox="0 0 165 125" fill="none" xmlns="http://www.w3.org/2000/svg">
<path d="M133.654 125C150.888 125 164.86 123.591 164.86 121.854C164.86 120.116 150.888 118.707 133.654 118.707C116.419 118.707 102.447 120.116 102.447 121.854C102.447 123.591 116.419 125 133.654 125Z" fill="#3F3D56"/>
<path d="M130.983 0H0V83.9837H130.983V0Z" fill="#3F3D56"/>
<path d="M4.07928 3.80641C4.64889 3.80641 5.11065 3.34413 5.11065 2.77386C5.11065 2.2036 4.64889 1.74132 4.07928 1.74132C3.50967 1.74132 3.04791 2.2036 3.04791 2.77386C3.04791 3.34413 3.50967 3.80641 4.07928 3.80641Z" fill="#6C63FF"/>
<path d="M7.99407 3.80641C8.56368 3.80641 9.02544 3.34413 9.02544 2.77386C9.02544 2.2036 8.56368 1.74132 7.99407 1.74132C7.42447 1.74132 6.96271 2.2036 6.96271 2.77386C6.96271 3.34413 7.42447 3.80641 7.99407 3.80641Z" fill="#6C63FF"/>
<path d="M11.9089 3.80641C12.4785 3.80641 12.9403 3.34413 12.9403 2.77386C12.9403 2.2036 12.4785 1.74132 11.9089 1.74132C11.3393 1.74132 10.8775 2.2036 10.8775 2.77386C10.8775 3.34413 11.3393 3.80641 11.9089 3.80641Z" fill="#6C63FF"/>
<path d="M101.409 34.4458H78.9751V35.7351H101.409V34.4458Z" fill="#E6E6E6"/>
<path d="M113.618 39.1487H78.9751V40.4379H113.618V39.1487Z" fill="#6C63FF"/>
<path d="M107.208 43.5794H78.9751V44.8687H107.208V43.5794Z" fill="#E6E6E6"/>
<path d="M95.457 47.9934H78.9751V49.2827H95.457V47.9934Z" fill="#E6E6E6"/>
<path d="M103.851 52.4074H78.9751V53.6967H103.851V52.4074Z" fill="#E6E6E6"/>
<path d="M71.4973 33.9875H68.7503V36.7376H71.4973V33.9875Z" fill="#E6E6E6"/>
<path d="M71.4973 38.4182H68.7503V41.1683H71.4973V38.4182Z" fill="#6C63FF"/>
<path d="M71.4973 42.849H68.7503V45.5991H71.4973V42.849Z" fill="#E6E6E6"/>
<path d="M71.4973 47.2797H68.7503V50.0299H71.4973V47.2797Z" fill="#E6E6E6"/>
<path d="M71.4973 51.7105H68.7503V54.4606H71.4973V51.7105Z" fill="#E6E6E6"/>
<path d="M34.2657 57.723C43.4648 57.723 50.9222 50.2571 50.9222 41.0475C50.9222 31.8378 43.4648 24.3719 34.2657 24.3719C25.0666 24.3719 17.6092 31.8378 17.6092 41.0475C17.6092 50.2571 25.0666 57.723 34.2657 57.723Z" fill="#6C63FF"/>
<path d="M35.1965 25.3129H33.3348V23.4491H35.1965V25.3129ZM33.7072 24.9402H34.8242V23.8219H33.7072V24.9402Z" fill="white"/>
<path d="M44.7349 24.1947H34.868V24.5674H44.7349V24.1947Z" fill="white"/>
<path d="M44.7349 24.7692C44.949 24.7692 45.1226 24.5954 45.1226 24.381C45.1226 24.1666 44.949 23.9928 44.7349 23.9928C44.5208 23.9928 44.3472 24.1666 44.3472 24.381C44.3472 24.5954 44.5208 24.7692 44.7349 24.7692Z" fill="white"/>
<path d="M33.5648 24.1947H23.8841V24.5674H33.5648V24.1947Z" fill="white"/>
<path d="M23.884 24.7692C24.0982 24.7692 24.2718 24.5954 24.2718 24.381C24.2718 24.1666 24.0982 23.9928 23.884 23.9928C23.6699 23.9928 23.4963 24.1666 23.4963 24.381C23.4963 24.5954 23.6699 24.7692 23.884 24.7692Z" fill="white"/>
<path d="M51.8093 41.9355H49.9476V40.0717H51.8093V41.9355ZM50.32 41.5627H51.437V40.4444H50.32V41.5627Z" fill="white"/>
<path d="M51.0647 41.793H50.6923V51.4848H51.0647V41.793Z" fill="white"/>
<path d="M50.8784 51.873C51.0926 51.873 51.2662 51.6992 51.2662 51.4848C51.2662 51.2704 51.0926 51.0966 50.8784 51.0966C50.6643 51.0966 50.4907 51.2704 50.4907 51.4848C50.4907 51.6992 50.6643 51.873 50.8784 51.873Z" fill="white"/>
<path d="M51.0647 30.6101H50.6923V40.3019H51.0647V30.6101Z" fill="white"/>
<path d="M50.8784 30.9983C51.0926 30.9983 51.2662 30.8245 51.2662 30.6101C51.2662 30.3957 51.0926 30.2219 50.8784 30.2219C50.6643 30.2219 50.4907 30.3957 50.4907 30.6101C50.4907 30.8245 50.6643 30.9983 50.8784 30.9983Z" fill="white"/>
<path d="M18.4852 41.9355H16.6235V40.0717H18.4852V41.9355ZM16.9959 41.5627H18.1129V40.4444H16.9959V41.5627Z" fill="white"/>
<path d="M17.7405 41.793H17.3682V51.4848H17.7405V41.793Z" fill="white"/>
<path d="M17.5543 51.873C17.7685 51.873 17.9421 51.6992 17.9421 51.4848C17.9421 51.2704 17.7685 51.0966 17.5543 51.0966C17.3402 51.0966 17.1666 51.2704 17.1666 51.4848C17.1666 51.6992 17.3402 51.873 17.5543 51.873Z" fill="white"/>
<path d="M17.7405 30.2373H17.3682V40.3019H17.7405V30.2373Z" fill="white"/>
<path d="M17.5543 30.9983C17.7685 30.9983 17.9421 30.8245 17.9421 30.6101C17.9421 30.3957 17.7685 30.2219 17.5543 30.2219C17.3402 30.2219 17.1666 30.3957 17.1666 30.6101C17.1666 30.8245 17.3402 30.9983 17.5543 30.9983Z" fill="white"/>
<path d="M35.1965 58.6752H33.3348V56.8114H35.1965V58.6752ZM33.7072 58.3025H34.8242V57.1842H33.7072V58.3025Z" fill="white"/>
<path d="M44.9211 57.5569H35.0542V57.9297H44.9211V57.5569Z" fill="white"/>
<path d="M44.7349 58.1315C44.949 58.1315 45.1226 57.9577 45.1226 57.7433C45.1226 57.5289 44.949 57.3551 44.7349 57.3551C44.5208 57.3551 44.3472 57.5289 44.3472 57.7433C44.3472 57.9577 44.5208 58.1315 44.7349 58.1315Z" fill="white"/>
<path d="M33.5648 57.5569H23.8841V57.9297H33.5648V57.5569Z" fill="white"/>
<path d="M23.884 58.1315C24.0982 58.1315 24.2718 57.9577 24.2718 57.7433C24.2718 57.5289 24.0982 57.3551 23.884 57.3551C23.6699 57.3551 23.4963 57.5289 23.4963 57.7433C23.4963 57.9577 23.6699 58.1315 23.884 58.1315Z" fill="white"/>
<path d="M139.047 64.5096L137.357 70.7939C137.357 70.7939 136.512 75.8696 137.96 75.9904C139.409 76.1113 139.047 70.9147 139.047 70.9147L141.823 66.5641L139.047 64.5096Z" fill="#FBBEBE"/>
<path d="M151.601 67.7958V65.827L140.135 65.0535L138.323 76.6554C138.323 76.6554 138.081 88.2222 138.926 94.1286C139.771 100.035 141.461 113.817 141.461 113.817H149.187L147.255 85.1459L155.947 113.817L165 112.709L154.498 78.8703C154.498 78.8703 154.619 72.5948 151.601 67.7958Z" fill="#131316"/>
<path d="M142.427 112.487L141.944 116.234L141.22 118.892C141.22 118.892 137.84 119.617 139.892 120.826C141.944 122.034 143.875 120.826 143.875 120.826L145.445 118.651V122.397H147.859V117.08L146.048 113.092L142.427 112.487Z" fill="#2F2E41"/>
<path d="M157.395 112.487L156.912 116.234L156.188 118.892C156.188 118.892 152.808 119.617 154.86 120.826C156.912 122.034 158.844 120.826 158.844 120.826L160.413 118.651V122.397H162.827V117.08L161.016 113.092L157.395 112.487Z" fill="#2F2E41"/>
<path d="M146.833 44.8714C149.099 44.8714 150.937 43.0318 150.937 40.7625C150.937 38.4932 149.099 36.6536 146.833 36.6536C144.566 36.6536 142.729 38.4932 142.729 40.7625C142.729 43.0318 144.566 44.8714 146.833 44.8714Z" fill="#FBBEBE"/>
<path d="M149.549 42.5149L152.929 46.6237L148.825 48.1949L146.893 44.3277L149.549 42.5149Z" fill="#FBBEBE"/>
<path d="M147.497 46.8655L148.08 46.7048C148.08 46.7048 151.118 44.811 151.963 44.9319C152.808 45.0527 155.464 47.7114 154.981 51.3369C154.498 54.9625 155.464 68.4977 153.532 68.0143C151.601 67.5309 150.997 67.1684 150.997 67.1684L148.704 66.0807L146.531 66.685C146.531 66.685 145.203 65.839 144.117 66.0807C143.03 66.3224 139.53 65.1139 139.53 65.1139L147.497 46.8655Z" fill="#00088D"/>
<path d="M148.354 47.2529C148.354 47.2529 145.626 45.9591 144.419 47.8927C143.211 49.8263 139.831 60.0986 139.831 60.0986L138.262 64.8118L142.125 67.1079L149.73 53.0893C149.73 53.0893 150.841 48.9094 148.354 47.2529Z" fill="#00088D"/>
<path d="M146.404 41.4033C146.146 41.0058 146.277 40.4653 146.096 40.0272C145.812 39.3393 144.929 39.1782 144.188 39.1154C143.697 39.0523 143.2 39.0537 142.71 39.1194C142.493 39.1555 142.287 39.2415 142.109 39.3706C141.932 39.4997 141.786 39.6685 141.684 39.8635C141.575 40.0836 141.602 39.3941 141.673 38.5089C141.744 37.6055 142.099 36.7481 142.689 36.0602C143.278 35.3723 144.07 34.8893 144.95 34.6809C144.961 34.6784 144.971 34.676 144.982 34.6736C145.884 34.4653 146.814 34.312 147.733 34.4201C148.652 34.5283 149.569 34.9256 150.143 35.6529C150.405 35.9853 150.59 36.3773 150.883 36.6831C151.398 37.2205 152.16 37.416 152.86 37.6653C153.663 37.9245 154.402 38.3514 155.029 38.9176C155.657 39.4923 156.033 40.2916 156.077 41.1424C156.091 42.1241 155.468 43.1372 154.463 43.3308C154.288 43.3613 154.123 43.4326 153.981 43.539C153.021 44.284 154.116 45.0639 154.108 45.9026C154.102 46.6024 153.323 47.0585 152.625 47.0911C151.972 47.1029 151.336 46.887 150.824 46.4803C150.313 46.0737 149.959 45.5017 149.823 44.8624C149.718 44.2881 149.799 43.6982 149.867 43.1183C149.946 42.4546 148.518 40.8916 149.461 42.0372C149.645 42.2549 149.77 42.5169 149.822 42.7973C149.979 43.7126 149.147 44.0204 148.622 44.5275C148.334 44.8144 148.132 45.1763 148.039 45.5722C147.946 45.9681 147.966 46.3823 148.096 46.7676C147.664 46.3752 147.381 45.844 147.298 45.2656C147.215 44.6871 147.336 44.0978 147.641 43.5992C147.81 43.3398 148.027 43.114 148.188 42.8491C148.438 42.4356 148.507 41.5364 147.807 41.561C147.307 41.5787 146.788 41.9951 146.404 41.4033Z" fill="#2F2E41"/>
<path opacity="0.2" d="M148.281 57.1982L142.729 65.9954L147.984 56.3075L148.281 57.1982Z" fill="black"/>
<path d="M127.113 79.5477H3.87009V5.92705H127.113V79.5477ZM4.24242 79.1749H126.741V6.29981H4.24242V79.1749Z" fill="#E6E6E6"/>
</svg>
