<svg width="191" height="123" viewBox="0 0 191 123" fill="none" xmlns="http://www.w3.org/2000/svg">
<g clip-path="url(#clip0)">
<path d="M191 0.0748367H59.4619V84.627H191V0.0748367Z" fill="#3F3D56"/>
<path d="M187.239 10.6798H63.2232V79.6249H187.239V10.6798Z" fill="#3F3D56"/>
<path d="M190.944 0H59.4057V5.60874H190.944V0Z" fill="#6C63FF"/>
<path d="M63.5584 3.90702C64.1304 3.90702 64.5942 3.44161 64.5942 2.86749C64.5942 2.29337 64.1304 1.82795 63.5584 1.82795C62.9864 1.82795 62.5227 2.29337 62.5227 2.86749C62.5227 3.44161 62.9864 3.90702 63.5584 3.90702Z" fill="white"/>
<path d="M67.4898 3.90702C68.0618 3.90702 68.5255 3.44161 68.5255 2.86749C68.5255 2.29337 68.0618 1.82795 67.4898 1.82795C66.9178 1.82795 66.4541 2.29337 66.4541 2.86749C66.4541 3.44161 66.9178 3.90702 67.4898 3.90702Z" fill="white"/>
<path d="M71.4212 3.90702C71.9932 3.90702 72.4569 3.44161 72.4569 2.86749C72.4569 2.29337 71.9932 1.82795 71.4212 1.82795C70.8492 1.82795 70.3855 2.29337 70.3855 2.86749C70.3855 3.44161 70.8492 3.90702 71.4212 3.90702Z" fill="white"/>
<path d="M152.148 17.1374H111.772C111.686 17.126 111.607 17.0835 111.55 17.0179C111.493 16.9523 111.461 16.8681 111.461 16.7808C111.461 16.6935 111.493 16.6093 111.55 16.5437C111.607 16.4781 111.686 16.4356 111.772 16.4242H152.148C152.234 16.4356 152.313 16.4781 152.371 16.5437C152.428 16.6093 152.459 16.6935 152.459 16.7808C152.459 16.8681 152.428 16.9523 152.371 17.0179C152.313 17.0835 152.234 17.126 152.148 17.1374V17.1374Z" fill="#CCCCCC"/>
<path d="M124.172 21.0599H98.5009C98.4147 21.0485 98.3356 21.0061 98.2783 20.9405C98.221 20.8749 98.1894 20.7906 98.1894 20.7033C98.1894 20.6161 98.221 20.5318 98.2783 20.4662C98.3356 20.4006 98.4147 20.3581 98.5009 20.3467H124.172C124.258 20.3581 124.337 20.4006 124.394 20.4662C124.452 20.5318 124.483 20.6161 124.483 20.7033C124.483 20.7906 124.452 20.8749 124.394 20.9405C124.337 21.0061 124.258 21.0485 124.172 21.0599V21.0599Z" fill="#CCCCCC"/>
<path d="M152.148 21.1313H126.477C126.391 21.1199 126.312 21.0774 126.254 21.0118C126.197 20.9462 126.166 20.8619 126.166 20.7747C126.166 20.6874 126.197 20.6031 126.254 20.5375C126.312 20.4719 126.391 20.4295 126.477 20.4181H152.148C152.234 20.4295 152.313 20.4719 152.371 20.5375C152.428 20.6031 152.459 20.6874 152.459 20.7747C152.459 20.8619 152.428 20.9462 152.371 21.0118C152.313 21.0774 152.234 21.1199 152.148 21.1313H152.148Z" fill="#CCCCCC"/>
<path d="M124.234 24.9825H98.5632C98.4771 24.9711 98.3979 24.9286 98.3406 24.863C98.2833 24.7974 98.2517 24.7131 98.2517 24.6259C98.2517 24.5386 98.2833 24.4544 98.3406 24.3888C98.3979 24.3232 98.4771 24.2807 98.5632 24.2693H124.234C124.32 24.2807 124.399 24.3232 124.457 24.3888C124.514 24.4544 124.546 24.5386 124.546 24.6259C124.546 24.7131 124.514 24.7974 124.457 24.863C124.399 24.9286 124.32 24.9711 124.234 24.9825V24.9825Z" fill="#CCCCCC"/>
<path d="M124.296 28.905H98.6255C98.5393 28.8936 98.4602 28.8512 98.4029 28.7856C98.3456 28.72 98.314 28.6357 98.314 28.5484C98.314 28.4612 98.3456 28.3769 98.4029 28.3113C98.4602 28.2457 98.5393 28.2032 98.6255 28.1918H124.296C124.383 28.2032 124.462 28.2457 124.519 28.3113C124.576 28.3769 124.608 28.4612 124.608 28.5484C124.608 28.6357 124.576 28.72 124.519 28.7856C124.462 28.8512 124.383 28.8936 124.296 28.905V28.905Z" fill="#CCCCCC"/>
<path d="M135.948 24.9825H128.596C128.509 24.9711 128.43 24.9286 128.373 24.863C128.316 24.7974 128.284 24.7131 128.284 24.6259C128.284 24.5386 128.316 24.4544 128.373 24.3888C128.43 24.3232 128.509 24.2807 128.596 24.2693H135.948C136.034 24.2807 136.113 24.3232 136.17 24.3888C136.228 24.4544 136.259 24.5386 136.259 24.6259C136.259 24.7131 136.228 24.7974 136.17 24.863C136.113 24.9286 136.034 24.9711 135.948 24.9825V24.9825Z" fill="#CCCCCC"/>
<path d="M135.948 28.8337H128.596C128.509 28.8223 128.43 28.7799 128.373 28.7142C128.316 28.6486 128.284 28.5644 128.284 28.4771C128.284 28.3899 128.316 28.3056 128.373 28.24C128.43 28.1744 128.509 28.1319 128.596 28.1205H135.948C136.034 28.1319 136.113 28.1744 136.17 28.24C136.228 28.3056 136.259 28.3899 136.259 28.4771C136.259 28.5644 136.228 28.6486 136.17 28.7142C136.113 28.7799 136.034 28.8223 135.948 28.8337V28.8337Z" fill="#CCCCCC"/>
<path d="M148.285 28.8337H140.932C140.846 28.8223 140.767 28.7799 140.71 28.7142C140.653 28.6486 140.621 28.5644 140.621 28.4771C140.621 28.3899 140.653 28.3056 140.71 28.24C140.767 28.1744 140.846 28.1319 140.932 28.1205H148.285C148.371 28.1319 148.45 28.1744 148.507 28.24C148.565 28.3056 148.596 28.3899 148.596 28.4771C148.596 28.5644 148.565 28.6486 148.507 28.7142C148.45 28.7799 148.371 28.8223 148.285 28.8337V28.8337Z" fill="#CCCCCC"/>
<path d="M105.666 17.1374H98.314C98.2278 17.126 98.1487 17.0835 98.0913 17.0179C98.034 16.9523 98.0024 16.8681 98.0024 16.7808C98.0024 16.6935 98.034 16.6093 98.0913 16.5437C98.1487 16.4781 98.2278 16.4356 98.314 16.4242H105.666C105.752 16.4356 105.832 16.4781 105.889 16.5437C105.946 16.6093 105.978 16.6935 105.978 16.7808C105.978 16.8681 105.946 16.9523 105.889 17.0179C105.832 17.0835 105.752 17.126 105.666 17.1374Z" fill="#CCCCCC"/>
<path d="M124.078 62.1128H98.4075C98.3213 62.1014 98.2422 62.059 98.1848 61.9934C98.1275 61.9278 98.0959 61.8435 98.0959 61.7562C98.0959 61.669 98.1275 61.5847 98.1848 61.5191C98.2422 61.4535 98.3213 61.411 98.4075 61.3996H124.078C124.164 61.411 124.244 61.4535 124.301 61.5191C124.358 61.5847 124.39 61.669 124.39 61.7562C124.39 61.8435 124.358 61.9278 124.301 61.9934C124.244 62.059 124.164 62.1014 124.078 62.1128H124.078Z" fill="#CCCCCC"/>
<path d="M123.954 69.9579H98.2828C98.1966 69.9465 98.1175 69.9041 98.0602 69.8385C98.0029 69.7729 97.9713 69.6886 97.9713 69.6013C97.9713 69.5141 98.0029 69.4298 98.0602 69.3642C98.1175 69.2986 98.1966 69.2561 98.2828 69.2447H123.954C124.04 69.2561 124.119 69.2986 124.176 69.3642C124.234 69.4298 124.265 69.5141 124.265 69.6013C124.265 69.6886 124.234 69.7729 124.176 69.8385C124.119 69.9041 124.04 69.9465 123.954 69.9579H123.954Z" fill="#CCCCCC"/>
<path d="M124.016 73.8805H98.3451C98.259 73.8691 98.1798 73.8266 98.1225 73.761C98.0652 73.6954 98.0336 73.6111 98.0336 73.5239C98.0336 73.4366 98.0652 73.3524 98.1225 73.2867C98.1798 73.2211 98.259 73.1787 98.3451 73.1673H124.016C124.102 73.1787 124.181 73.2211 124.239 73.2867C124.296 73.3524 124.327 73.4366 124.327 73.5239C124.327 73.6111 124.296 73.6954 124.239 73.761C124.181 73.8266 124.102 73.8691 124.016 73.8805H124.016Z" fill="#CCCCCC"/>
<path d="M134.982 70.0293H127.63C127.544 70.0179 127.464 69.9754 127.407 69.9098C127.35 69.8442 127.318 69.7599 127.318 69.6726C127.318 69.5854 127.35 69.5011 127.407 69.4355C127.464 69.3699 127.544 69.3275 127.63 69.3161H134.982C135.068 69.3275 135.147 69.3699 135.205 69.4355C135.262 69.5011 135.294 69.5854 135.294 69.6726C135.294 69.7599 135.262 69.8442 135.205 69.9098C135.147 69.9754 135.068 70.0179 134.982 70.0293V70.0293Z" fill="#CCCCCC"/>
<path d="M134.982 73.8805H127.63C127.544 73.8691 127.464 73.8266 127.407 73.761C127.35 73.6954 127.318 73.6111 127.318 73.5239C127.318 73.4366 127.35 73.3524 127.407 73.2867C127.464 73.2211 127.544 73.1787 127.63 73.1673H134.982C135.068 73.1787 135.147 73.2211 135.205 73.2867C135.262 73.3524 135.294 73.4366 135.294 73.5239C135.294 73.6111 135.262 73.6954 135.205 73.761C135.147 73.8266 135.068 73.8691 134.982 73.8805V73.8805Z" fill="#CCCCCC"/>
<path d="M147.319 70.0293H139.967C139.881 70.0179 139.801 69.9754 139.744 69.9098C139.687 69.8442 139.655 69.7599 139.655 69.6726C139.655 69.5854 139.687 69.5011 139.744 69.4355C139.801 69.3699 139.881 69.3275 139.967 69.3161H147.319C147.405 69.3275 147.484 69.3699 147.542 69.4355C147.599 69.5011 147.631 69.5854 147.631 69.6726C147.631 69.7599 147.599 69.8442 147.542 69.9098C147.484 69.9754 147.405 70.0179 147.319 70.0293V70.0293Z" fill="#CCCCCC"/>
<path d="M152.179 66.0354H111.804C111.717 66.024 111.638 65.9815 111.581 65.9159C111.524 65.8503 111.492 65.766 111.492 65.6788C111.492 65.5915 111.524 65.5073 111.581 65.4417C111.638 65.3761 111.717 65.3336 111.804 65.3222H152.179C152.265 65.3336 152.344 65.3761 152.402 65.4417C152.459 65.5073 152.491 65.5915 152.491 65.6788C152.491 65.766 152.459 65.8503 152.402 65.9159C152.344 65.9815 152.265 66.024 152.179 66.0354V66.0354Z" fill="#CCCCCC"/>
<path d="M105.697 66.0354H98.3451C98.259 66.024 98.1798 65.9815 98.1225 65.9159C98.0652 65.8503 98.0336 65.766 98.0336 65.6788C98.0336 65.5915 98.0652 65.5073 98.1225 65.4417C98.1798 65.3761 98.259 65.3336 98.3451 65.3222H105.697C105.784 65.3336 105.863 65.3761 105.92 65.4417C105.977 65.5073 106.009 65.5915 106.009 65.6788C106.009 65.766 105.977 65.8503 105.92 65.9159C105.863 65.9815 105.784 66.024 105.697 66.0354V66.0354Z" fill="#CCCCCC"/>
<path d="M117.879 35.2412L107.909 45.1221L117.879 55.0028L120.122 52.7515L112.582 45.1845L120.184 37.5551L117.879 35.2412Z" fill="#E6E6E6"/>
<path d="M132.583 35.2412L142.552 45.1221L132.583 55.0028L130.34 52.7515L137.879 45.1845L130.278 37.5551L132.583 35.2412Z" fill="#E6E6E6"/>
<path d="M117.879 35.2412L107.909 45.1221L117.879 55.0028L120.122 52.7515L112.582 45.1845L120.184 37.5551L117.879 35.2412Z" fill="#6C63FF"/>
<path d="M132.583 35.2412L142.552 45.1221L132.583 55.0028L130.34 52.7515L137.879 45.1845L130.278 37.5551L132.583 35.2412Z" fill="#6C63FF"/>
<path d="M32.2305 99.5335V110.356H29.1495L27.0958 99.0181L32.2305 99.5335Z" fill="#FFB9B9"/>
<path d="M7.84009 99.5335V110.356H4.75934L2.70537 99.0181L7.84009 99.5335Z" fill="#FFB9B9"/>
<path d="M24.0931 19.752C24.0931 19.752 19.1423 16.1806 18.5234 17.8886C17.9046 19.5967 22.2365 22.7023 22.2365 22.7023L24.0931 19.752Z" fill="#FFB9B9"/>
<path d="M6.53319 24.3328C6.53319 30.5074 9.18194 30.6993 13.4969 30.6993C17.8119 30.6993 22.1591 30.5074 22.1591 24.3328C22.1591 18.1581 18.6611 13.1526 14.3462 13.1526C10.0312 13.1526 6.53319 18.1581 6.53319 24.3328Z" fill="#2F2E41"/>
<path d="M17.131 24.2551C17.131 24.2551 16.5121 28.9135 19.4517 29.2241C22.3912 29.5346 9.85951 30.4663 9.85951 30.4663C9.85951 30.4663 13.1085 27.516 11.4066 25.1868C9.7048 22.8576 17.131 24.2551 17.131 24.2551Z" fill="#FFB9B9"/>
<path d="M32.7569 107.485L33.8399 116.647C33.8399 116.647 39.2548 123.324 35.8512 122.858C32.4475 122.392 30.2815 122.957 30.2815 122.336C30.2815 121.715 30.2015 119.496 29.7374 119.496C29.2732 119.496 28.8891 123 28.8891 123C28.8891 123 27.4967 122.894 27.342 122.739C27.1873 122.584 27.0326 113.697 27.0326 113.697C27.0326 113.697 26.5684 111.057 27.4967 109.815C28.425 108.572 28.2703 107.485 28.2703 107.485L32.7569 107.485Z" fill="#2F2E41"/>
<path d="M8.10986 107.385L9.19285 116.546C9.19285 116.546 14.6078 123.223 11.2041 122.757C7.80044 122.292 5.63446 122.856 5.63446 122.235C5.63446 121.614 5.55444 119.395 5.0903 119.395C4.62616 119.395 4.24205 122.899 4.24205 122.899C4.24205 122.899 2.84964 122.794 2.69493 122.638C2.54021 122.483 2.3855 113.596 2.3855 113.596C2.3855 113.596 1.92137 110.956 2.84964 109.714C3.77791 108.472 3.6232 107.385 3.6232 107.385H8.10986Z" fill="#2F2E41"/>
<path d="M24.7119 52.982C24.7119 52.982 29.6627 67.1125 29.9721 70.2181C30.2815 73.3237 29.6627 83.8828 29.6627 83.8828C29.6627 83.8828 34.1493 102.127 33.2211 102.282C32.2928 102.437 27.1233 103.174 26.9686 102.397C26.8139 101.621 26.2624 100.419 26.4171 99.953C26.5718 99.4872 25.9529 97.7791 25.9529 96.8474C25.9529 95.9157 23.7836 91.0257 23.9383 90.2493C24.093 89.4729 21.3082 77.9821 20.8441 77.0504C20.3799 76.1187 19.1422 69.597 19.1422 69.597C19.1422 69.597 12.1802 88.6965 12.0255 89.1623C11.8708 89.6281 11.2519 90.4046 11.5613 90.5598C11.8708 90.7151 11.0972 91.8021 11.0972 91.8021C11.0972 91.8021 9.49405 98.2449 9.49405 98.5555C9.49405 98.866 9.80348 102.381 9.18463 102.537C8.56578 102.692 2.24452 102.682 1.9351 101.595C1.62567 100.508 5.21813 87.9201 5.21813 87.9201C5.21813 87.9201 7.84824 80.0008 7.07468 77.9821C6.30112 75.9635 7.84824 63.8516 8.46709 62.9199C9.08594 61.9883 9.24065 56.3982 9.24065 56.3982L24.7119 52.982Z" fill="#131316"/>
<path d="M14.4235 26.8173C17.1578 26.8173 19.3743 24.5926 19.3743 21.8483C19.3743 19.104 17.1578 16.8793 14.4235 16.8793C11.6893 16.8793 9.47273 19.104 9.47273 21.8483C9.47273 24.5926 11.6893 26.8173 14.4235 26.8173Z" fill="#FFB9B9"/>
<path d="M17.131 28.1371C17.131 28.1371 11.5613 28.2924 11.2519 27.8266C10.9425 27.3607 3.20686 28.9135 3.20686 32.0191C3.20686 35.1248 7.69352 47.2366 7.69352 47.2366C7.69352 47.2366 9.39536 55.9323 8.93122 56.864C8.46708 57.7957 26.1043 54.8454 25.6402 53.2925C25.176 51.7397 22.5459 48.3236 25.9496 45.3733C29.3532 42.4229 30.7457 39.3173 30.7457 39.3173L26.7231 28.603C26.7231 28.603 22.7006 27.9818 21.7723 28.603C20.8441 29.2241 17.131 28.1371 17.131 28.1371Z" fill="#00088D"/>
<path d="M29.6626 40.0937L30.7456 39.3173C30.7456 39.3173 40.8019 28.7583 38.1718 26.7396C35.5417 24.721 31.6739 22.8576 29.8174 22.7023C27.9608 22.547 26.4137 21.1495 26.4137 21.1495C26.4137 21.1495 24.4024 17.5781 22.8553 19.9073C21.3082 22.2365 19.6064 23.0129 21.7723 23.7893C23.9383 24.5657 25.3307 24.2551 26.4137 25.0315C27.4967 25.8079 31.6739 27.0502 29.8174 27.516C28.7528 27.775 27.7163 28.1391 26.7231 28.603L24.7119 32.1744L29.6626 40.0937Z" fill="#00088D"/>
<path d="M12.1802 66.3361C12.1802 66.3361 16.2027 72.2368 13.2632 71.9262C10.3237 71.6156 8.93124 67.5783 8.93124 67.5783L12.1802 66.3361Z" fill="#FFB9B9"/>
<path d="M4.28987 31.2427L3.20688 32.0191C3.20688 32.0191 -0.351498 51.5845 3.20688 56.7087C6.76527 61.833 7.07469 61.5224 7.07469 61.5224C7.07469 61.5224 7.69354 61.0566 8.00296 64.1622C8.31239 67.2678 7.84826 68.51 8.77653 68.51C9.7048 68.51 13.882 67.5784 13.5726 66.802C13.2632 66.0256 11.2519 61.5224 11.0972 60.4355C10.9425 59.3485 10.1689 56.864 9.85952 55.4665C9.55009 54.069 11.2519 53.2926 10.4784 50.3422C9.7048 47.3919 8.62182 42.1124 8.62182 41.0254C8.62182 39.9384 4.28987 31.2427 4.28987 31.2427Z" fill="#00088D"/>
<path d="M9.62746 17.4228C9.62746 19.0951 11.9133 20.4508 14.733 20.4508C17.5527 20.4508 20.1479 21.3467 20.1479 19.6744C20.1479 18.0021 17.5527 14.3948 14.733 14.3948C11.9133 14.3948 9.62746 15.7505 9.62746 17.4228Z" fill="#2F2E41"/>
<path d="M22.1127 25.3807C22.1127 25.3807 22.3211 31.0098 16.7478 30.6993C11.1746 30.3887 17.501 25.8876 17.501 25.8876L22.1127 25.3807Z" fill="#2F2E41"/>
</g>
<defs>
<clipPath id="clip0">
<rect width="191" height="123" fill="white"/>
</clipPath>
</defs>
</svg>
