<svg width="191" height="202" viewBox="0 0 191 202" fill="none" xmlns="http://www.w3.org/2000/svg">
<path d="M26.2337 158.264L23.9582 149.299C19.9242 147.591 15.797 146.112 11.5962 144.868L11.3092 149.035L10.1442 144.445C4.93453 142.959 1.39044 142.304 1.39044 142.304C1.39044 142.304 6.17866 160.492 16.2202 174.397L27.9201 176.45L18.831 177.76C20.0946 179.278 21.4526 180.716 22.8969 182.064C37.5042 195.61 53.7735 201.824 59.2353 195.944C64.6972 190.064 57.2834 174.317 42.6761 160.772C38.1477 156.572 32.4592 153.203 26.7651 150.551L26.2337 158.264Z" fill="#00088D"/>
<path d="M47.8702 148.527L50.5604 139.677C47.9907 136.132 45.2228 132.734 42.2701 129.5L39.8688 132.918L41.2462 128.387C37.5554 124.425 34.8601 122.034 34.8601 122.034C34.8601 122.034 29.5493 140.077 30.9518 157.166L39.9054 164.965L31.447 161.393C31.7431 163.345 32.1618 165.277 32.7007 167.177C38.1975 186.317 48.9098 200.039 56.6273 197.826C64.3449 195.613 66.1451 178.304 60.6484 159.165C58.9443 153.232 55.818 147.409 52.3156 142.198L47.8702 148.527Z" fill="#00088D"/>
<path d="M95.5 202C148.243 202 191 199.815 191 197.121C191 194.426 148.243 192.241 95.5 192.241C42.7568 192.241 0 194.426 0 197.121C0 199.815 42.7568 202 95.5 202Z" fill="#3F3D56"/>
<path d="M151.295 46.8808H150.21V17.1864C150.21 14.9294 149.765 12.6946 148.901 10.6094C148.036 8.52427 146.769 6.62966 145.172 5.03376C143.575 3.43785 141.679 2.17191 139.592 1.30822C137.505 0.444526 135.268 -6.76346e-06 133.009 0H70.0423C67.7834 -4.98358e-06 65.5466 0.444529 63.4596 1.30822C61.3726 2.17192 59.4763 3.43786 57.879 5.03376C56.2817 6.62966 55.0147 8.52428 54.1503 10.6094C53.2858 12.6946 52.8409 14.9294 52.8409 17.1864V180.093C52.8409 182.35 53.2858 184.584 54.1503 186.67C55.0147 188.755 56.2817 190.649 57.879 192.245C59.4763 193.841 61.3726 195.107 63.4596 195.971C65.5466 196.834 67.7834 197.279 70.0423 197.279H133.009C135.268 197.279 137.505 196.834 139.592 195.971C141.679 195.107 143.575 193.841 145.172 192.245C146.769 190.649 148.036 188.755 148.901 186.67C149.765 184.584 150.21 182.35 150.21 180.093V68.0179H151.295V46.8808Z" fill="#3F3D56"/>
<path d="M146.549 17.3063V179.973C146.549 183.377 145.196 186.642 142.786 189.049C140.377 191.456 137.11 192.808 133.703 192.808H70.434C67.0269 192.808 63.7594 191.456 61.3503 189.049C58.9411 186.642 57.5876 183.377 57.5876 179.973V17.3063C57.5876 13.9022 58.9411 10.6376 61.3503 8.23051C63.7594 5.82346 67.0269 4.47116 70.434 4.4711H78.1092C77.7321 5.39707 77.5885 6.40145 77.691 7.39589C77.7935 8.39033 78.1391 9.34436 78.6973 10.1741C79.2554 11.0038 80.0091 11.6837 80.892 12.1541C81.7749 12.6244 82.76 12.8708 83.7605 12.8716H119.834C120.834 12.8708 121.819 12.6244 122.702 12.1541C123.585 11.6837 124.339 11.0037 124.897 10.174C125.455 9.34435 125.801 8.39032 125.903 7.39588C126.006 6.40144 125.862 5.39707 125.485 4.4711H133.703C137.11 4.47116 140.377 5.82345 142.786 8.2305C145.196 10.6376 146.549 13.9022 146.549 17.3063V17.3063Z" fill="#DCDBDB"/>
<path d="M146.549 145.024V179.973C146.549 183.377 145.196 186.642 142.786 189.049C140.377 191.456 137.11 192.808 133.703 192.808H70.434C67.0269 192.808 63.7594 191.456 61.3503 189.049C58.9411 186.642 57.5876 183.377 57.5876 179.973V148.431C63.0133 142.068 69.7012 136.898 77.2287 133.248C84.7562 129.599 92.9595 127.549 101.32 127.229C109.681 126.909 118.017 128.325 125.802 131.388C133.587 134.451 140.652 139.094 146.549 145.024Z" fill="#3F3D56"/>
<path d="M112.829 63.4773L133.628 63.9934L136.427 39.2146H112.829V63.4773Z" fill="#2F2E41"/>
<path d="M107.646 44.0647L101.909 22.0869C101.909 22.0869 103.494 11.5368 107.328 11.7108C111.162 11.8849 106.333 22.0248 106.333 22.0248L112.829 41.0099L107.646 44.0647Z" fill="#FFB8B8"/>
<path d="M118.893 99.132L119.792 108.108C119.792 108.108 91.4913 127.408 91.4913 135.486C91.4913 143.565 90.5929 169.148 90.5929 169.148L100.925 169.597L101.823 157.478C101.823 157.478 104.069 144.014 102.722 139.077L117.546 127.856C117.546 127.856 113.053 133.242 113.952 142.667C114.85 152.093 112.604 170.494 112.604 170.494L123.385 171.392C123.385 171.392 124.733 161.518 125.182 160.62C125.631 159.723 127.877 143.565 125.631 139.077L144.049 117.534C144.049 117.534 150.338 109.455 144.049 101.376L140.455 99.5808L118.893 99.132Z" fill="#131316"/>
<path d="M91.0421 167.352L90.1437 173.187L84.304 187.101C84.304 187.101 74.4213 192.038 81.6087 192.935C88.7961 193.833 91.4913 192.038 92.839 189.793C94.1866 187.549 96.8819 183.959 96.8819 183.959L96.4327 193.384H98.6787L102.36 180.51C102.72 179.278 102.783 177.978 102.543 176.716C102.303 175.455 101.766 174.269 100.978 173.254C100.961 173.232 100.943 173.21 100.925 173.187C99.1279 170.943 100.026 167.801 100.026 167.801L91.0421 167.352Z" fill="#070707"/>
<path d="M113.503 167.352L112.604 173.187L106.764 187.101C106.764 187.101 96.8819 192.038 104.069 192.935C111.257 193.833 113.952 192.038 115.3 189.793C116.647 187.549 119.342 183.959 119.342 183.959L118.893 193.384H121.139L124.821 180.51C125.181 179.278 125.244 177.978 125.003 176.716C124.763 175.455 124.227 174.269 123.439 173.254C123.421 173.232 123.403 173.21 123.385 173.187C121.588 170.943 122.487 167.801 122.487 167.801L113.503 167.352Z" fill="#070707"/>
<path d="M124.284 52.9036C129.246 52.9036 133.268 48.8848 133.268 43.9272C133.268 38.9697 129.246 34.9509 124.284 34.9509C119.322 34.9509 115.299 38.9697 115.299 43.9272C115.299 48.8848 119.322 52.9036 124.284 52.9036Z" fill="#FFB8B8"/>
<path d="M123.835 51.5572L127.877 60.9824L135.963 54.6989C135.963 54.6989 131.022 47.9666 131.022 47.069L123.835 51.5572Z" fill="#FFB8B8"/>
<path d="M124.733 56.943L126.649 58.1196C126.649 58.1196 132.841 54.8394 134.402 52.525C134.402 52.525 140.006 50.6595 142.252 55.1477C144.498 59.6359 140.905 90.6044 140.905 90.6044C140.905 90.6044 143.151 93.7462 142.701 95.0926C142.252 96.4391 144.049 98.6832 144.049 98.6832V101.376C144.049 101.376 118.444 101.825 118.444 99.5808V92.3997L115.749 91.5021C115.749 91.5021 113.053 97.3367 112.155 96.8879C111.257 96.4391 106.765 92.8485 106.765 92.8485C106.765 92.8485 113.952 69.0611 117.995 65.0217L122.936 56.4942L124.733 56.943Z" fill="#00088D"/>
<path d="M123.835 57.3918C123.835 57.3918 122.936 55.5965 121.588 55.1477C120.241 54.6989 113.503 45.2737 113.503 45.2737L114.401 40.3367L105.417 38.9902C105.417 38.9902 105.866 43.9272 107.663 47.069C109.46 50.2107 119.342 66.3682 119.342 66.3682L124.284 57.3918L123.835 57.3918Z" fill="#00088D"/>
<path d="M130.797 93.0729L125.407 109.23C125.407 109.23 114.177 121.797 120.465 121.797C126.754 121.797 129.899 110.577 129.899 110.577L137.535 94.4194L130.797 93.0729Z" fill="#FFB8B8"/>
<path d="M113.516 44.0584C120.712 41.1769 127.806 40.5622 134.715 44.0584V38.2503C134.715 37.7536 134.617 37.2616 134.426 36.8027C134.236 36.3437 133.957 35.9267 133.606 35.5754C133.254 35.2241 132.837 34.9455 132.377 34.7554C131.918 34.5653 131.426 34.4674 130.928 34.4674H116.507C116.114 34.4674 115.725 34.5447 115.363 34.6949C115 34.8451 114.67 35.0652 114.392 35.3428C114.114 35.6203 113.894 35.9497 113.744 36.3123C113.593 36.6749 113.516 37.0635 113.516 37.456V44.0584Z" fill="#2F2E41"/>
<path d="M136.412 56.4942C136.412 56.4942 140.511 53.0256 142.729 57.004C144.947 60.9824 143.6 78.0375 143.151 80.2816C142.701 82.5257 139.557 96.4391 139.557 96.4391L128.776 94.195C128.776 94.195 127.877 87.9115 130.573 88.3603L136.412 56.4942Z" fill="#00088D"/>
<path d="M140.884 52.6374C138.856 51.5247 137.912 49.0272 137.845 46.7165C137.777 44.4058 138.338 42.119 138.382 39.8077C138.405 39.3348 138.365 38.8611 138.262 38.3988C138.094 37.8251 137.832 37.2831 137.487 36.7948C134.849 32.7573 130.265 29.9171 125.436 29.8724C124.739 29.8633 124.046 29.9905 123.397 30.247C122.898 30.4468 122.735 30.4223 122.639 31.0347C121.495 30.6577 120.255 30.6971 119.137 31.146C118.03 31.5956 116.998 32.21 116.075 32.9683C115.526 33.3758 115.008 33.8235 114.526 34.3077C111.974 36.949 111.387 41.0199 112.126 44.616C112.366 45.7851 111.213 46.9138 110.259 47.6319C109.305 48.35 108.203 49.0094 107.734 50.1073C107.284 51.1634 107.531 52.3712 107.44 53.5158C107.339 54.5977 106.936 55.6296 106.278 56.4951C105.621 57.3606 104.734 58.0252 103.718 58.4138C103.925 58.6617 104.196 58.8491 104.501 58.9562C104.805 59.0634 105.134 59.0863 105.451 59.0226C106.112 58.8834 106.731 58.589 107.256 58.1638C109.231 56.7016 110.644 54.6067 111.259 52.2289C111.54 53.5025 111.431 54.8161 111.421 56.1201C111.445 57.5753 111.177 59.0206 110.632 60.3703C110.077 61.7264 109.062 62.8436 107.764 63.5253C109.016 64.1377 110.395 63.6938 111.456 62.7905C112.516 61.8872 113.143 60.5759 113.58 59.2538C114.292 57.0993 114.581 54.8278 114.43 52.5639C115.595 54.5223 116.02 56.832 115.63 59.0762C115.223 61.3644 114.027 63.4381 112.25 64.9379C115.348 64.9117 118.395 64.1451 121.136 62.7021C121.844 62.3816 122.468 61.9015 122.959 61.2997C123.841 60.0772 123.632 58.4098 123.385 56.9232C123.189 55.7477 124.659 54.0484 123.817 53.2043C123.567 52.9574 123.233 52.8139 122.881 52.8025C120.317 52.5558 117.942 51.2689 116.573 49.0881C115.614 47.5598 114.979 45.8147 114.979 44.1824C114.98 42.8973 115.258 41.6274 115.795 40.4597C116.332 39.2919 117.115 38.2538 118.091 37.4163C119.067 36.5788 120.212 35.9616 121.448 35.6069C122.684 35.2523 123.983 35.1685 125.254 35.3613C126.526 35.5542 127.741 36.0191 128.816 36.7243C129.892 37.4295 130.802 38.3584 131.485 39.4475C132.168 40.5365 132.607 41.76 132.773 43.0344C132.94 44.3088 132.828 45.604 132.447 46.8314C132.143 47.8192 131.926 48.8314 131.797 49.8566C131.644 51.0463 131.402 52.2227 131.072 53.3758C130.435 55.5919 129.356 57.8531 127.359 59.009C128.03 59.3759 128.806 59.3925 129.567 59.4762C132.072 59.752 134.707 59.6911 136.975 58.5916C139.243 57.4921 141.045 55.1507 140.884 52.6374Z" fill="#2F2E41"/>
<path opacity="0.2" d="M133.043 68.3878L130.699 87.6701L130.797 69.2855L133.043 68.3878Z" fill="black"/>
<path opacity="0.2" d="M140.746 91.1585L139.782 97.1123L142.027 98.01L140.746 91.1585Z" fill="black"/>
</svg>
