<svg width="160" height="160" viewBox="0 0 160 160" fill="none" xmlns="http://www.w3.org/2000/svg">
<path d="M131.964 61.107C130.743 59.887 128.765 59.887 127.544 61.107C126.324 62.3276 126.324 64.3063 127.544 65.5266C127.592 65.5747 127.642 65.6238 127.691 65.6688C128.294 66.2335 129.061 66.5129 129.827 66.5129C130.66 66.5129 131.493 66.1807 132.108 65.5241C133.288 64.2651 133.223 62.2869 131.964 61.107Z" fill="url(#paint0_linear)"/>
<path d="M125.615 55.9745C123.826 54.7598 121.99 53.6764 120.156 52.7535C109.786 47.5351 98.7962 46.4876 88.3749 49.7239C86.7268 50.2361 85.8053 51.987 86.3175 53.6351C86.8293 55.2835 88.5796 56.2042 90.2287 55.6926C99.0737 52.9454 108.451 53.8598 117.346 58.336C118.915 59.1263 120.561 60.0982 122.105 61.1454C122.642 61.5104 123.253 61.6857 123.857 61.6857C124.857 61.6857 125.841 61.206 126.445 60.3154C127.414 58.8876 127.043 56.9438 125.615 55.9745Z" fill="url(#paint1_linear)"/>
<path d="M154.045 96.4149C152.764 93.7274 150.642 89.2768 150.604 87.8047C154.258 78.7972 152.925 68.8294 146.838 59.7116C137.478 45.6889 118.294 35.5108 101.223 35.5108C92.1993 35.5108 83.3878 37.6627 75.4603 41.7705C73.1859 29.309 62.2572 19.8306 49.1492 19.8306C34.3974 19.8306 22.3961 31.8318 22.3961 46.5833C22.3961 55.9685 27.1793 64.5019 35.1898 69.4097C37.4992 70.8247 38.0217 72.0478 38.2073 74.0519V84.7215V92.3381C38.2073 95.8274 41.0455 98.6662 44.5339 98.6662H45.5964C47.3129 112.346 53.9335 124.766 64.4429 133.906C64.5419 134.215 64.831 135.662 63.5891 139.98C62.6219 143.344 61.1376 147.08 59.8285 150.377C58.9523 152.583 58.1954 154.488 57.7379 155.929C57.4363 156.878 57.6057 157.915 58.1941 158.72C58.7829 159.524 59.7197 160 60.7163 160H105.324C106.79 160 108.803 159.344 110.07 156.217C110.621 154.857 110.981 153.22 111.363 151.486C111.734 149.798 112.605 145.842 113.47 145.364C113.471 145.364 113.522 145.356 113.644 145.375C113.804 145.4 113.966 145.413 114.129 145.413C118.8 145.413 122.618 145.624 125.985 145.811C135.863 146.359 141.826 146.69 147.056 139.156C149.716 135.324 149.414 129.736 149.095 123.82C148.931 120.77 148.761 117.623 149.063 115.006C149.608 114.469 150.973 113.531 151.83 112.944C154.776 110.92 157.558 109.01 157.558 106.105C157.559 103.897 156.223 100.985 154.045 96.4149ZM38.4555 64.0798C32.3133 60.3173 28.6464 53.7767 28.6464 46.5829C28.6464 35.2774 37.8442 26.0802 49.1495 26.0802C60.4551 26.0802 69.6525 35.2777 69.6525 46.5829C69.6525 53.7767 65.986 60.3176 59.8435 64.0804C56.9244 65.8694 55.1895 67.956 54.366 70.7753L49.1485 70.7735L43.9336 70.7753C43.1095 67.9563 41.3748 65.8694 38.4555 64.0798ZM53.8416 77.026V81.5962H44.4579V77.026H53.8416V77.026ZM44.5345 92.4159C44.4998 92.4159 44.4579 92.3728 44.4579 92.3378V87.8462H53.8416V92.3378C53.8416 92.3731 53.7995 92.4159 53.7641 92.4159H44.5345ZM148.293 107.791C145.603 109.638 143.28 111.233 142.937 113.647C142.467 116.958 142.664 120.617 142.855 124.155C143.092 128.545 143.36 133.521 141.922 135.592C138.813 140.071 136.124 140.114 126.332 139.57C123.101 139.391 119.093 139.169 114.34 139.162C112.515 138.947 109.426 139.289 107.365 143.296C106.318 145.33 105.756 147.887 105.26 150.142C105.01 151.276 104.66 152.868 104.332 153.749H65.215C65.3519 153.404 65.4932 153.048 65.6382 152.683C70.14 141.348 72.9913 133.034 68.6513 129.282C59.4526 121.326 53.5863 110.553 51.9042 98.6659H53.7645C57.2535 98.6659 60.0919 95.8271 60.0919 92.3378V84.7212V74.0578C60.2772 72.05 60.7982 70.826 63.1094 69.4094C70.5066 64.8776 75.1478 57.2535 75.8159 48.7226C83.4859 44.1648 92.2346 41.7605 101.223 41.7605C116.113 41.7605 133.489 50.9695 141.641 63.1813C145.134 68.415 148.509 76.5572 144.744 85.6228C143.518 88.575 145.336 92.6693 148.403 99.1043C149.397 101.187 150.834 104.203 151.215 105.612C150.569 106.228 149.181 107.181 148.293 107.791Z" fill="url(#paint2_linear)"/>
<path d="M64.4782 42.1676C63.5554 38.7473 61.2613 36.008 57.8435 34.2445C56.3098 33.4542 54.4251 34.0555 53.6335 35.5899C52.8426 37.1239 53.4445 39.0086 54.9785 39.7995C56.8445 40.762 57.9782 42.0695 58.4438 43.7955C59.181 46.5279 58.066 49.4845 57.5766 50.2523C56.6488 51.7079 57.0766 53.6398 58.5319 54.5676C59.0526 54.8998 59.6341 55.0576 60.2088 55.0576C61.241 55.0576 62.251 54.5473 62.8466 53.6123C64.1797 51.522 65.7141 46.7483 64.4782 42.1676Z" fill="url(#paint3_linear)"/>
<path d="M49.1495 0C47.4236 0 46.0245 1.39968 46.0245 3.12499V12.0337C46.0245 13.759 47.4236 15.1587 49.1495 15.1587C50.8751 15.1587 52.2745 13.759 52.2745 12.0337V3.12499C52.2745 1.39968 50.8751 0 49.1495 0Z" fill="url(#paint4_linear)"/>
<path d="M14.4759 43.5826H5.56716C3.84123 43.5826 2.44217 44.9823 2.44217 46.7076C2.44217 48.4336 3.84123 49.8326 5.56716 49.8326H14.4762C16.2018 49.8326 17.6009 48.4336 17.6009 46.7076C17.6009 44.9823 16.2015 43.5826 14.4759 43.5826Z" fill="url(#paint5_linear)"/>
<path d="M34.5177 15.1134L30.0646 7.40152C29.2015 5.90684 27.2899 5.39528 25.7955 6.25778C24.3012 7.1209 23.789 9.03183 24.6521 10.5265L29.1052 18.2384C29.6843 19.2412 30.7343 19.8015 31.8143 19.8015C32.3446 19.8015 32.8821 19.6665 33.3739 19.3821C34.8686 18.519 35.3808 16.6081 34.5177 15.1134Z" fill="url(#paint6_linear)"/>
<path d="M20.6805 26.664L12.9678 22.2109C11.4734 21.3484 9.56183 21.8605 8.69902 23.3546C7.8359 24.8493 8.34808 26.7602 9.84277 27.6233L17.5555 32.0764C18.0474 32.3608 18.5849 32.4958 19.1149 32.4958C20.1949 32.4958 21.2452 31.9355 21.8243 30.9327C22.6874 29.4386 22.1752 27.5271 20.6805 26.664Z" fill="url(#paint7_linear)"/>
<path d="M89.6012 23.3543C88.7378 21.8596 86.8268 21.3474 85.3325 22.2105L77.6197 26.6636C76.125 27.5268 75.6128 29.4383 76.4759 30.9324C77.0547 31.9352 78.105 32.4955 79.185 32.4955C79.715 32.4955 80.2525 32.3605 80.7447 32.0761L88.4575 27.623C89.9521 26.7599 90.4643 24.849 89.6012 23.3543Z" fill="url(#paint8_linear)"/>
<path d="M21.8259 62.4832C20.9634 60.9885 19.0527 60.477 17.5578 61.3388L9.84309 65.7919C8.34841 66.6544 7.83591 68.566 8.69872 70.0607C9.27747 71.0635 10.3281 71.6238 11.4081 71.6238C11.9381 71.6238 12.4753 71.4888 12.9675 71.205L20.6818 66.7519C22.1765 65.8894 22.689 63.9779 21.8259 62.4832Z" fill="url(#paint9_linear)"/>
<path d="M32.7311 75.1456C31.2371 74.2831 29.3255 74.7953 28.4624 76.2894L24.6518 82.8903C23.789 84.385 24.3011 86.2965 25.7958 87.159C26.288 87.4434 26.8252 87.5784 27.3552 87.5784C28.4352 87.5784 29.4858 87.0181 30.0646 86.0153L33.8752 79.4144C34.7383 77.9197 34.2261 76.0088 32.7311 75.1456Z" fill="url(#paint10_linear)"/>
<path d="M72.5044 6.25778C71.0094 5.39466 69.0988 5.90685 68.2357 7.40153L63.7826 15.1134C62.9194 16.6081 63.4313 18.5193 64.926 19.3821C65.4182 19.6665 65.9557 19.8015 66.4857 19.8015C67.5657 19.8015 68.616 19.2412 69.195 18.2384L73.6482 10.5265C74.5113 9.03183 73.9991 7.1209 72.5044 6.25778Z" fill="url(#paint11_linear)"/>
<defs>
<linearGradient id="paint0_linear" x1="129.791" y1="60.192" x2="129.791" y2="66.5129" gradientUnits="userSpaceOnUse">
<stop stop-color="#D300BE"/>
<stop offset="0.9999" stop-color="#0029B9"/>
<stop offset="1" stop-color="#0029B9"/>
</linearGradient>
<linearGradient id="paint1_linear" x1="106.58" y1="47.8841" x2="106.58" y2="61.6857" gradientUnits="userSpaceOnUse">
<stop stop-color="#D300BE"/>
<stop offset="0.9999" stop-color="#0029B9"/>
<stop offset="1" stop-color="#0029B9"/>
</linearGradient>
<linearGradient id="paint2_linear" x1="89.977" y1="19.8306" x2="89.977" y2="160" gradientUnits="userSpaceOnUse">
<stop stop-color="#D300BE"/>
<stop offset="0.9999" stop-color="#0029B9"/>
<stop offset="1" stop-color="#0029B9"/>
</linearGradient>
<linearGradient id="paint3_linear" x1="59.109" y1="33.8966" x2="59.109" y2="55.0576" gradientUnits="userSpaceOnUse">
<stop stop-color="#D300BE"/>
<stop offset="0.9999" stop-color="#0029B9"/>
<stop offset="1" stop-color="#0029B9"/>
</linearGradient>
<linearGradient id="paint4_linear" x1="49.1495" y1="0" x2="49.1495" y2="15.1587" gradientUnits="userSpaceOnUse">
<stop stop-color="#D300BE"/>
<stop offset="0.9999" stop-color="#0029B9"/>
<stop offset="1" stop-color="#0029B9"/>
</linearGradient>
<linearGradient id="paint5_linear" x1="10.0215" y1="43.5826" x2="10.0215" y2="49.8326" gradientUnits="userSpaceOnUse">
<stop stop-color="#D300BE"/>
<stop offset="0.9999" stop-color="#0029B9"/>
<stop offset="1" stop-color="#0029B9"/>
</linearGradient>
<linearGradient id="paint6_linear" x1="29.5849" y1="5.83876" x2="29.5849" y2="19.8015" gradientUnits="userSpaceOnUse">
<stop stop-color="#D300BE"/>
<stop offset="0.9999" stop-color="#0029B9"/>
<stop offset="1" stop-color="#0029B9"/>
</linearGradient>
<linearGradient id="paint7_linear" x1="15.2616" y1="21.792" x2="15.2616" y2="32.4958" gradientUnits="userSpaceOnUse">
<stop stop-color="#D300BE"/>
<stop offset="0.9999" stop-color="#0029B9"/>
<stop offset="1" stop-color="#0029B9"/>
</linearGradient>
<linearGradient id="paint8_linear" x1="83.0386" y1="21.7912" x2="83.0386" y2="32.4955" gradientUnits="userSpaceOnUse">
<stop stop-color="#D300BE"/>
<stop offset="0.9999" stop-color="#0029B9"/>
<stop offset="1" stop-color="#0029B9"/>
</linearGradient>
<linearGradient id="paint9_linear" x1="15.2624" y1="60.9202" x2="15.2624" y2="71.6238" gradientUnits="userSpaceOnUse">
<stop stop-color="#D300BE"/>
<stop offset="0.9999" stop-color="#0029B9"/>
<stop offset="1" stop-color="#0029B9"/>
</linearGradient>
<linearGradient id="paint10_linear" x1="29.2636" y1="74.7267" x2="29.2636" y2="87.5784" gradientUnits="userSpaceOnUse">
<stop stop-color="#D300BE"/>
<stop offset="0.9999" stop-color="#0029B9"/>
<stop offset="1" stop-color="#0029B9"/>
</linearGradient>
<linearGradient id="paint11_linear" x1="68.7153" y1="5.83849" x2="68.7153" y2="19.8015" gradientUnits="userSpaceOnUse">
<stop stop-color="#D300BE"/>
<stop offset="0.9999" stop-color="#0029B9"/>
<stop offset="1" stop-color="#0029B9"/>
</linearGradient>
</defs>
</svg>
