<svg width="159" height="159" viewBox="0 0 159 159" fill="none" xmlns="http://www.w3.org/2000/svg">
<path d="M156.671 15.4317H84.0849V2.3291C84.0849 1.04282 83.0424 0 81.7558 0H67.2244C65.9381 0 64.8953 1.04282 64.8953 2.3291V15.4317H36.3927C35.1064 15.4317 34.0636 16.4745 34.0636 17.7608V37.7855C32.5264 38.6047 31.0696 39.6817 29.8429 40.9214V34.076C29.8429 29.8535 25.6422 26.3862 19.394 25.235V20.179C19.394 18.8927 18.3511 17.8499 17.0649 17.8499C12.9414 17.8499 8.74904 19.4353 5.56252 22.1994C1.9757 25.3111 0 29.6302 0 34.3608V44.1191C0 47.1305 4.6582 47.1305 4.6582 44.1191V34.3608C4.6582 29.2625 8.45215 23.8028 14.7358 22.7063V112.052C11.0806 112.509 7.34785 113.971 4.66752 116.547C4.66255 113.375 4.6582 56.4956 4.6582 56.4956C4.6582 53.4842 0 53.4842 0 56.4956V128.842C0 128.973 0.0133535 129.1 0.0341602 129.225C0.263033 136.057 6.58359 141.162 14.9215 141.162C18.9583 141.162 22.5699 140.013 25.2304 138.12L25.2316 146.682C25.2329 154.553 33.1043 159 40.1553 159C47.6394 158.999 55.0746 154.784 55.0746 146.678L55.0693 113.748H121.399L73.068 154.898C71.4522 156.273 72.4559 159 74.5778 159H144.72C146.007 159 147.05 157.957 147.05 156.671V145.373C147.05 142.361 142.391 142.361 142.391 145.373V154.342H80.9065L142.391 101.993V132.523C142.391 135.535 147.05 135.535 147.05 132.523V113.748H156.671C157.957 113.748 159 112.706 159 111.419V78.91V17.7608C159 16.4745 157.957 15.4317 156.671 15.4317V15.4317ZM154.342 20.0899V76.5809H99.7936V20.0899H154.342ZM79.4267 4.6582V64.2661H69.5535V58.3139H71.2447C74.2561 58.3139 74.2561 53.6557 71.2447 53.6557H69.5535V47.5525H73.4186C76.4299 47.5525 76.4299 42.8943 73.4186 42.8943H69.5535V36.7911H71.2447C72.531 36.7911 73.5738 35.7483 73.5738 34.462C73.5738 33.1757 72.531 32.1329 71.2447 32.1329H69.5535V26.0297H73.4186C76.4299 26.0297 76.4299 21.3715 73.4186 21.3715H69.5535V15.2687H71.2447C74.2561 15.2687 74.2561 10.6105 71.2447 10.6105H69.5535V4.6582H79.4267ZM36.7874 41.545C37.7929 41.0692 38.8476 40.7357 39.9509 40.5441L39.9652 129.89C37.3706 130.214 33.1763 131.234 29.8976 134.386C29.8923 131.258 29.8873 128.837 29.8873 128.771L29.8749 52.2001C29.8743 48.0267 32.4177 43.612 36.7874 41.545V41.545ZM50.4154 139.881C50.3369 139.836 50.2577 139.792 50.1772 139.748C47.5059 138.281 44.0182 137.463 40.3372 137.437L40.3369 134.542C41.453 134.388 42.2027 134.399 42.2207 134.399C43.679 134.302 44.4799 133.526 44.6234 132.071L44.6101 47.8506C47.6975 48.6146 50.4011 50.1797 50.4014 51.9123L50.4154 139.881ZM25.1847 34.076V110.932V122.014C22.5895 120.523 19.0825 119.626 15.1072 119.6V116.704C16.2239 116.55 16.9736 116.562 16.991 116.562C18.4493 116.464 19.2502 115.688 19.394 114.234V29.9985C22.9417 30.8479 25.1847 32.6093 25.1847 34.076V34.076ZM25.1847 129.945C25.1847 133.5 20.4846 136.504 14.9215 136.504C9.08381 136.504 4.68149 133.21 4.68149 128.842C4.68149 124.419 6.28485 120.229 10.449 118.113V122.029C10.6148 123.553 11.4641 124.326 12.9967 124.348C16.2332 124.044 19.811 124.406 22.7047 125.994C24.3745 126.911 25.3207 128.076 25.1847 129.945V129.945ZM40.1546 154.342C40.1537 154.342 40.1534 154.342 40.1522 154.342C34.3161 154.342 29.9137 151.049 29.9131 146.682C29.9125 142.259 31.5149 138.068 35.679 135.952L35.6797 139.868C35.8458 141.391 36.6952 142.164 38.2274 142.186C42.1785 141.815 50.6061 142.449 50.4167 147.781C50.4173 151.337 45.7178 154.341 40.1546 154.342V154.342ZM55.0596 51.911C55.059 47.718 50.8443 44.2303 44.6091 43.0741L44.6082 38.0159C44.4747 36.5964 43.6983 35.82 42.2788 35.6871C41.09 35.6874 39.8963 35.8234 38.7218 36.0775V20.0899H64.8953V66.5949C64.8953 67.8812 65.9381 68.924 67.2244 68.924H81.7558C83.0424 68.924 84.0849 67.8812 84.0849 66.5949V20.0899H95.1354V78.91V109.09H55.069L55.0596 51.911ZM145.697 94.8367C144.872 94.4556 143.902 94.5885 143.21 95.1777L126.87 109.09H99.7936V81.2391H154.342V109.09H147.05V96.9512C147.05 96.0431 146.522 95.2177 145.697 94.8367V94.8367Z" fill="url(#paint0_linear)"/>
<path d="M110.971 66.7418H132.431C133.044 66.7418 133.648 66.4909 134.08 66.057L144.81 55.3354C145.248 54.8985 145.493 54.3056 145.493 53.6877L145.49 32.2577C145.49 30.9975 144.421 29.929 143.161 29.929L121.698 29.9314C121.081 29.9314 120.488 30.1768 120.052 30.6131L109.326 41.3304C108.893 41.762 108.641 42.3688 108.641 42.9797V64.4127C108.642 65.6993 109.685 66.7418 110.971 66.7418V66.7418ZM113.3 45.3088H130.102V62.0836H113.3V45.3088ZM134.761 58.793V43.9452L140.834 37.8771L140.836 52.7231L134.761 58.793ZM122.663 34.5896L137.535 34.5878L131.467 40.6506H116.597L122.663 34.5896Z" fill="url(#paint1_linear)"/>
<path d="M121.987 97.5387H114.269C111.258 97.5387 111.258 102.197 114.269 102.197H121.987C124.998 102.197 124.998 97.5387 121.987 97.5387Z" fill="url(#paint2_linear)"/>
<path d="M134.044 88.2705H114.269C111.258 88.2705 111.258 92.9287 114.269 92.9287H134.044C137.056 92.9287 137.056 88.2705 134.044 88.2705Z" fill="url(#paint3_linear)"/>
<path d="M131.898 119.656L103.776 143.599C102.161 144.975 103.164 147.702 105.286 147.702H133.408C134.694 147.702 135.737 146.659 135.737 145.373V121.429C135.737 119.659 133.5 118.291 131.898 119.656V119.656ZM131.078 143.043H111.614L131.078 126.471V143.043Z" fill="url(#paint4_linear)"/>
<defs>
<linearGradient id="paint0_linear" x1="79.5" y1="0" x2="79.5" y2="159" gradientUnits="userSpaceOnUse">
<stop stop-color="#EB00B7"/>
<stop offset="1" stop-color="#0007B6"/>
</linearGradient>
<linearGradient id="paint1_linear" x1="127.067" y1="29.929" x2="127.067" y2="66.7418" gradientUnits="userSpaceOnUse">
<stop stop-color="#EB00B7"/>
<stop offset="1" stop-color="#0007B6"/>
</linearGradient>
<linearGradient id="paint2_linear" x1="118.128" y1="97.5387" x2="118.128" y2="102.197" gradientUnits="userSpaceOnUse">
<stop stop-color="#EB00B7"/>
<stop offset="1" stop-color="#0007B6"/>
</linearGradient>
<linearGradient id="paint3_linear" x1="124.157" y1="88.2705" x2="124.157" y2="92.9287" gradientUnits="userSpaceOnUse">
<stop stop-color="#EB00B7"/>
<stop offset="1" stop-color="#0007B6"/>
</linearGradient>
<linearGradient id="paint4_linear" x1="119.357" y1="119.101" x2="119.357" y2="147.702" gradientUnits="userSpaceOnUse">
<stop stop-color="#EB00B7"/>
<stop offset="1" stop-color="#0007B6"/>
</linearGradient>
</defs>
</svg>
