<svg width="160" height="160" viewBox="0 0 160 160" fill="none" xmlns="http://www.w3.org/2000/svg">
<path d="M22.4556 130.661L37.5 138.182V156.875C37.5 158.601 38.8994 160 40.625 160H73.75C75.4756 160 76.875 158.601 76.875 156.875V114.203C76.875 104.629 69.6928 96.6891 60.1903 95.7366C60.1534 95.7262 46.9716 93.6684 40.8559 87.5525L33.8378 80.5375C31.4766 78.1756 28.3378 76.875 25 76.875V51.875C25 44.9825 19.3925 39.375 12.5 39.375C5.6075 39.375 0 44.9825 0 51.875V94.325C0 109.704 8.68688 123.775 22.4556 130.661ZM6.25 51.875C6.25 48.4288 9.05375 45.625 12.5 45.625C15.9462 45.625 18.75 48.4288 18.75 51.875V78.5503C14.9387 80.7541 12.5 84.8628 12.5 89.375C12.5 92.7125 13.8006 95.8509 16.1622 98.2125L32.1653 114.219C33.385 115.439 35.3641 115.44 36.5847 114.219C37.805 112.999 37.8053 111.02 36.585 109.8L20.5819 93.7931C19.4006 92.6122 18.75 91.0431 18.75 89.375C18.75 86.73 20.4241 84.3613 22.9163 83.4809C22.9172 83.4806 22.9181 83.48 22.9191 83.4797H22.9194C25.0744 82.7159 27.6309 83.1691 29.4191 84.9572L36.4372 91.9725C43.6828 99.2178 59.5131 101.944 59.5447 101.953C65.8616 102.586 70.625 107.853 70.625 114.203V153.75H43.75V136.25C43.75 135.066 43.0809 133.984 42.0225 133.455L25.2509 125.071C13.5309 119.209 6.25 107.428 6.25 94.325V51.875Z" fill="url(#paint0_linear)"/>
<path d="M42.5 76.875H117.5C119.226 76.875 120.625 75.4759 120.625 73.75V3.125C120.625 1.39906 119.226 0 117.5 0H42.5C40.7744 0 39.375 1.39906 39.375 3.125V73.75C39.375 75.4759 40.7744 76.875 42.5 76.875ZM70.625 6.25H89.375V23.0916L81.2578 19.0744C80.3766 18.6378 79.3403 18.6425 78.4628 19.0859L70.625 23.0453V6.25ZM45.625 6.25H64.375V28.125C64.375 29.2103 64.9381 30.2181 65.8628 30.7869C66.7869 31.3553 67.9406 31.4038 68.9091 30.9144L79.8863 25.3691L91.1141 30.9259C92.0659 31.3972 93.2147 31.36 94.1484 30.78C95.0666 30.2097 95.625 29.2056 95.625 28.125V6.25H114.375V70.625H45.625V6.25Z" fill="url(#paint1_linear)"/>
<path d="M105 55H86.25C84.5244 55 83.125 56.3991 83.125 58.125C83.125 59.8509 84.5244 61.25 86.25 61.25H105C106.726 61.25 108.125 59.8509 108.125 58.125C108.125 56.3991 106.726 55 105 55Z" fill="url(#paint2_linear)"/>
<path d="M143.438 126.25C145.163 126.25 146.562 124.851 146.562 123.125C146.562 121.399 145.163 120 143.438 120C141.712 120 140.312 121.399 140.312 123.125C140.312 124.851 141.712 126.25 143.438 126.25Z" fill="url(#paint3_linear)"/>
<path d="M147.5 39.375C140.608 39.375 135 44.9825 135 51.875V76.875C131.662 76.875 128.523 78.1756 126.163 80.5366L119.143 87.5528C115.3 91.3969 105.563 95.1581 100.041 95.7116L99.8322 95.7341C90.3072 96.6891 83.125 104.629 83.125 114.203V156.875C83.125 158.601 84.5244 160 86.25 160H119.375C121.101 160 122.5 158.601 122.5 156.875V138.182L132.728 133.068C134.272 132.297 134.898 130.42 134.126 128.876C133.354 127.333 131.478 126.706 129.933 127.478L117.978 133.454C116.919 133.984 116.25 135.066 116.25 136.25V153.75H89.375V114.203C89.375 107.853 94.1384 102.586 100.478 101.951L100.687 101.928C107.465 101.248 118.688 96.8462 123.562 91.9728L130.582 84.9566C132.37 83.1678 134.929 82.7172 137.081 83.4797H137.081C137.082 83.48 137.083 83.4806 137.084 83.4809C141.387 85.0013 142.683 90.5281 139.418 93.7938L123.415 109.8C122.195 111.021 122.195 112.999 123.416 114.219C124.636 115.439 126.615 115.44 127.835 114.219L143.838 98.2128C149.615 92.4347 148.412 82.6912 141.25 78.5503V51.875C141.25 48.4288 144.054 45.625 147.5 45.625C150.947 45.625 153.75 48.4288 153.75 51.875V94.325C153.75 100.042 152.308 105.719 149.578 110.74C148.753 112.256 149.314 114.154 150.83 114.978C152.346 115.802 154.244 115.242 155.068 113.725C158.295 107.791 160 101.082 160 94.325V51.875C160 44.9825 154.392 39.375 147.5 39.375V39.375Z" fill="url(#paint4_linear)"/>
<defs>
<linearGradient id="paint0_linear" x1="38.4375" y1="39.375" x2="38.4375" y2="160" gradientUnits="userSpaceOnUse">
<stop stop-color="#C800B4"/>
<stop offset="1" stop-color="#0037C6"/>
</linearGradient>
<linearGradient id="paint1_linear" x1="80" y1="0" x2="80" y2="76.875" gradientUnits="userSpaceOnUse">
<stop stop-color="#C800B4"/>
<stop offset="1" stop-color="#0037C6"/>
</linearGradient>
<linearGradient id="paint2_linear" x1="95.625" y1="55" x2="95.625" y2="61.25" gradientUnits="userSpaceOnUse">
<stop stop-color="#C800B4"/>
<stop offset="1" stop-color="#0037C6"/>
</linearGradient>
<linearGradient id="paint3_linear" x1="143.438" y1="120" x2="143.438" y2="126.25" gradientUnits="userSpaceOnUse">
<stop stop-color="#C800B4"/>
<stop offset="1" stop-color="#0037C6"/>
</linearGradient>
<linearGradient id="paint4_linear" x1="121.562" y1="39.375" x2="121.562" y2="160" gradientUnits="userSpaceOnUse">
<stop stop-color="#C800B4"/>
<stop offset="1" stop-color="#0037C6"/>
</linearGradient>
</defs>
</svg>
