<svg width="160" height="160" viewBox="0 0 160 160" fill="none" xmlns="http://www.w3.org/2000/svg">
<path d="M157.5 53.84C157.5 47.5875 152.413 42.5 146.16 42.5C143.133 42.5 140.282 43.68 138.142 45.8225L130.732 53.2325L122.5 61.465V37.3C130.968 36.08 137.5 28.7975 137.5 20C137.5 10.35 129.65 2.5 120 2.5H20C10.35 2.5 2.5 10.35 2.5 20V145C2.5 146.38 3.62 147.5 5 147.5H17.5V155C17.5 156.38 18.62 157.5 20 157.5H120C121.38 157.5 122.5 156.38 122.5 155V93.535L146.768 69.2675L149.335 66.7C148.04 73.15 144.882 79.08 140.127 83.8375L128.235 95.73L131.77 99.265L143.663 87.3725C150.758 80.2775 154.725 70.9075 154.958 60.91C156.575 58.905 157.5 56.455 157.5 53.84V53.84ZM141.678 49.3575C142.875 48.16 144.468 47.5 146.16 47.5C149.655 47.5 152.5 50.345 152.5 53.84C152.5 55.5325 151.84 57.125 150.642 58.3225L145 63.965L136.035 55L141.678 49.3575ZM132.5 58.535L135.215 61.25L103.75 92.715L101.035 90L132.5 58.535ZM73.0425 124.508L78.185 114.22L85.78 121.815L75.4925 126.958L73.0425 124.508ZM81.035 110L97.5 93.535L106.465 102.5L90 118.965L81.035 110ZM120 7.5C126.892 7.5 132.5 13.1075 132.5 20C132.5 26.8925 126.892 32.5 120 32.5H32.225C35.475 29.32 37.5 24.895 37.5 20C37.5 15.105 35.475 10.68 32.225 7.5H120ZM22.5 32.2475V25C22.5 23.6225 23.6225 22.5 25 22.5H32.2475C31.25 27.39 27.39 31.25 22.5 32.2475V32.2475ZM7.5 142.5V20C7.5 13.1075 13.1075 7.5 20 7.5C26.035 7.5 31.085 11.8025 32.2475 17.5H25C20.865 17.5 17.5 20.865 17.5 25V142.5H7.5ZM117.5 152.5H22.5V37.5H117.5V66.465L106.465 77.5H32.5V82.5H101.465L96.465 87.5H32.5V92.5H91.465L75.7325 108.232C75.5375 108.427 75.41 108.66 75.2925 108.895L75.265 108.88L67.765 123.88C67.285 124.842 67.4725 126.005 68.235 126.765L68.965 127.5L63.2325 133.232L66.7675 136.768L72.5 131.035L73.2325 131.768C73.7125 132.248 74.3525 132.5 75 132.5C75.3775 132.5 75.7625 132.413 76.1175 132.238L91.1175 124.738L91.1025 124.71C91.3375 124.592 91.57 124.465 91.765 124.27L111.765 104.27L117.5 98.535V152.5ZM110 98.965L107.285 96.25L138.75 64.785L141.465 67.5L110 98.965Z" fill="url(#paint0_linear)"/>
<path d="M32.5 47.5H107.5V52.5H32.5V47.5Z" fill="url(#paint1_linear)"/>
<path d="M32.5 57.5H107.5V62.5H32.5V57.5Z" fill="url(#paint2_linear)"/>
<path d="M32.5 67.5H107.5V72.5H32.5V67.5Z" fill="url(#paint3_linear)"/>
<path d="M32.5 127.5H60V132.5H32.5V127.5Z" fill="url(#paint4_linear)"/>
<path d="M32.5 137.5H107.5V142.5H32.5V137.5Z" fill="url(#paint5_linear)"/>
<defs>
<linearGradient id="paint0_linear" x1="80" y1="2.5" x2="80" y2="157.5" gradientUnits="userSpaceOnUse">
<stop stop-color="#EA00C4"/>
<stop offset="1" stop-color="#0031E0"/>
</linearGradient>
<linearGradient id="paint1_linear" x1="70" y1="47.5" x2="70" y2="52.5" gradientUnits="userSpaceOnUse">
<stop stop-color="#EA00C4"/>
<stop offset="1" stop-color="#0031E0"/>
</linearGradient>
<linearGradient id="paint2_linear" x1="70" y1="57.5" x2="70" y2="62.5" gradientUnits="userSpaceOnUse">
<stop stop-color="#EA00C4"/>
<stop offset="1" stop-color="#0031E0"/>
</linearGradient>
<linearGradient id="paint3_linear" x1="70" y1="67.5" x2="70" y2="72.5" gradientUnits="userSpaceOnUse">
<stop stop-color="#EA00C4"/>
<stop offset="1" stop-color="#0031E0"/>
</linearGradient>
<linearGradient id="paint4_linear" x1="46.25" y1="127.5" x2="46.25" y2="132.5" gradientUnits="userSpaceOnUse">
<stop stop-color="#EA00C4"/>
<stop offset="1" stop-color="#0031E0"/>
</linearGradient>
<linearGradient id="paint5_linear" x1="70" y1="137.5" x2="70" y2="142.5" gradientUnits="userSpaceOnUse">
<stop stop-color="#EA00C4"/>
<stop offset="1" stop-color="#0031E0"/>
</linearGradient>
</defs>
</svg>
