<svg width="160" height="160" viewBox="0 0 160 160" fill="none" xmlns="http://www.w3.org/2000/svg">
<path d="M152 48C156.418 48 160 44.4183 160 40V8C160 3.58167 156.418 0 152 0H8C3.58167 0 0 3.58167 0 8V40C0 44.4183 3.58167 48 8 48H16V56H8C3.58167 56 0 59.5817 0 64V96C0 100.418 3.58167 104 8 104H16V112H8C3.58167 112 0 115.582 0 120V152C0 156.418 3.58167 160 8 160H152C156.418 160 160 156.418 160 152V120C160 115.582 156.418 112 152 112H144V104H152C156.418 104 160 100.418 160 96V64C160 59.5817 156.418 56 152 56H144V48H152ZM152 117.333C153.473 117.333 154.667 118.527 154.667 120V152C154.667 153.473 153.473 154.667 152 154.667H8C6.52733 154.667 5.33333 153.473 5.33333 152V120C5.33333 118.527 6.52733 117.333 8 117.333H152ZM21.3333 112V104H26.6667V112H21.3333ZM32 112V104H128V112H32ZM133.333 112V104H138.667V112H133.333ZM152 61.3333C153.473 61.3333 154.667 62.5273 154.667 64V96C154.667 97.4727 153.473 98.6667 152 98.6667H8C6.52733 98.6667 5.33333 97.4727 5.33333 96V64C5.33333 62.5273 6.52733 61.3333 8 61.3333H152ZM21.3333 56V48H26.6667V56H21.3333ZM32 56V48H128V56H32ZM133.333 56V48H138.667V56H133.333ZM8 42.6667C6.52733 42.6667 5.33333 41.4727 5.33333 40V8C5.33333 6.52733 6.52733 5.33333 8 5.33333H152C153.473 5.33333 154.667 6.52733 154.667 8V40C154.667 41.4727 153.473 42.6667 152 42.6667H8Z" fill="url(#paint0_linear)"/>
<path d="M85.3333 21.3333H31.5093C30.0367 17.1677 25.4657 14.9847 21.3003 16.4577C17.135 17.9307 14.9517 22.501 16.4243 26.6667C17.897 30.8323 22.468 33.0153 26.6333 31.5423C28.9117 30.737 30.704 28.945 31.5093 26.6667H85.3333C86.806 26.6667 88 25.4727 88 24C88 22.5273 86.806 21.3333 85.3333 21.3333ZM24 26.6667C22.5273 26.6667 21.3333 25.4727 21.3333 24C21.3333 22.5273 22.5273 21.3333 24 21.3333C25.4727 21.3333 26.6667 22.5273 26.6667 24C26.6667 25.4727 25.4727 26.6667 24 26.6667Z" fill="url(#paint1_linear)"/>
<path d="M122.667 10.6667H117.333V16H122.667V10.6667Z" fill="url(#paint2_linear)"/>
<path d="M133.333 10.6667H128V16H133.333V10.6667Z" fill="url(#paint3_linear)"/>
<path d="M144 10.6667H138.667V16H144V10.6667Z" fill="url(#paint4_linear)"/>
<path d="M112 10.6667H106.667V16H112V10.6667Z" fill="url(#paint5_linear)"/>
<path d="M101.333 10.6667H96V16H101.333V10.6667Z" fill="url(#paint6_linear)"/>
<path d="M122.667 21.3333H117.333V26.6667H122.667V21.3333Z" fill="url(#paint7_linear)"/>
<path d="M133.333 21.3333H128V26.6667H133.333V21.3333Z" fill="url(#paint8_linear)"/>
<path d="M144 21.3333H138.667V26.6667H144V21.3333Z" fill="url(#paint9_linear)"/>
<path d="M112 21.3333H106.667V26.6667H112V21.3333Z" fill="url(#paint10_linear)"/>
<path d="M101.333 21.3333H96V26.6667H101.333V21.3333Z" fill="url(#paint11_linear)"/>
<path d="M122.667 32H117.333V37.3333H122.667V32Z" fill="url(#paint12_linear)"/>
<path d="M133.333 32H128V37.3333H133.333V32Z" fill="url(#paint13_linear)"/>
<path d="M144 32H138.667V37.3333H144V32Z" fill="url(#paint14_linear)"/>
<path d="M112 32H106.667V37.3333H112V32Z" fill="url(#paint15_linear)"/>
<path d="M101.333 32H96V37.3333H101.333V32Z" fill="url(#paint16_linear)"/>
<path d="M85.3333 77.3333H31.5093C30.0367 73.1677 25.4657 70.9847 21.3003 72.4577C17.135 73.9307 14.9517 78.501 16.4243 82.6667C17.897 86.8323 22.468 89.0153 26.6333 87.5423C28.9117 86.737 30.7037 84.9447 31.509 82.6667H85.3333C86.806 82.6667 88 81.4727 88 80C88 78.5273 86.806 77.3333 85.3333 77.3333ZM24 82.6667C22.5273 82.6667 21.3333 81.4727 21.3333 80C21.3333 78.5273 22.5273 77.3333 24 77.3333C25.4727 77.3333 26.6667 78.5273 26.6667 80C26.6667 81.4727 25.4727 82.6667 24 82.6667Z" fill="url(#paint17_linear)"/>
<path d="M122.667 66.6667H117.333V72H122.667V66.6667Z" fill="url(#paint18_linear)"/>
<path d="M133.333 66.6667H128V72H133.333V66.6667Z" fill="url(#paint19_linear)"/>
<path d="M144 66.6667H138.667V72H144V66.6667Z" fill="url(#paint20_linear)"/>
<path d="M112 66.6667H106.667V72H112V66.6667Z" fill="url(#paint21_linear)"/>
<path d="M101.333 66.6667H96V72H101.333V66.6667Z" fill="url(#paint22_linear)"/>
<path d="M122.667 77.3333H117.333V82.6667H122.667V77.3333Z" fill="url(#paint23_linear)"/>
<path d="M133.333 77.3333H128V82.6667H133.333V77.3333Z" fill="url(#paint24_linear)"/>
<path d="M144 77.3333H138.667V82.6667H144V77.3333Z" fill="url(#paint25_linear)"/>
<path d="M112 77.3333H106.667V82.6667H112V77.3333Z" fill="url(#paint26_linear)"/>
<path d="M101.333 77.3333H96V82.6667H101.333V77.3333Z" fill="url(#paint27_linear)"/>
<path d="M122.667 88H117.333V93.3333H122.667V88Z" fill="url(#paint28_linear)"/>
<path d="M133.333 88H128V93.3333H133.333V88Z" fill="url(#paint29_linear)"/>
<path d="M144 88H138.667V93.3333H144V88Z" fill="url(#paint30_linear)"/>
<path d="M112 88H106.667V93.3333H112V88Z" fill="url(#paint31_linear)"/>
<path d="M101.333 88H96V93.3333H101.333V88Z" fill="url(#paint32_linear)"/>
<path d="M85.3333 133.333H31.5093C30.0367 129.168 25.4657 126.985 21.3003 128.458C17.135 129.931 14.9517 134.501 16.4243 138.667C17.897 142.832 22.468 145.015 26.6333 143.542C28.9117 142.737 30.7037 140.945 31.509 138.667H85.3333C86.806 138.667 88 137.473 88 136C88 134.527 86.806 133.333 85.3333 133.333ZM24 138.667C22.5273 138.667 21.3333 137.473 21.3333 136C21.3333 134.527 22.5273 133.333 24 133.333C25.4727 133.333 26.6667 134.527 26.6667 136C26.6667 137.473 25.4727 138.667 24 138.667Z" fill="url(#paint33_linear)"/>
<path d="M122.667 122.667H117.333V128H122.667V122.667Z" fill="url(#paint34_linear)"/>
<path d="M133.333 122.667H128V128H133.333V122.667Z" fill="url(#paint35_linear)"/>
<path d="M144 122.667H138.667V128H144V122.667Z" fill="url(#paint36_linear)"/>
<path d="M112 122.667H106.667V128H112V122.667Z" fill="url(#paint37_linear)"/>
<path d="M101.333 122.667H96V128H101.333V122.667Z" fill="url(#paint38_linear)"/>
<path d="M122.667 133.333H117.333V138.667H122.667V133.333Z" fill="url(#paint39_linear)"/>
<path d="M133.333 133.333H128V138.667H133.333V133.333Z" fill="url(#paint40_linear)"/>
<path d="M144 133.333H138.667V138.667H144V133.333Z" fill="url(#paint41_linear)"/>
<path d="M112 133.333H106.667V138.667H112V133.333Z" fill="url(#paint42_linear)"/>
<path d="M101.333 133.333H96V138.667H101.333V133.333Z" fill="url(#paint43_linear)"/>
<path d="M122.667 144H117.333V149.333H122.667V144Z" fill="url(#paint44_linear)"/>
<path d="M133.333 144H128V149.333H133.333V144Z" fill="url(#paint45_linear)"/>
<path d="M144 144H138.667V149.333H144V144Z" fill="url(#paint46_linear)"/>
<path d="M112 144H106.667V149.333H112V144Z" fill="url(#paint47_linear)"/>
<path d="M101.333 144H96V149.333H101.333V144Z" fill="url(#paint48_linear)"/>
<defs>
<linearGradient id="paint0_linear" x1="80" y1="0" x2="80" y2="160" gradientUnits="userSpaceOnUse">
<stop stop-color="#ED00D5"/>
<stop offset="0.9998" stop-color="#0154A2"/>
<stop offset="0.9999" stop-color="#00A3D7"/>
<stop offset="1" stop-color="#002FD7"/>
</linearGradient>
<linearGradient id="paint1_linear" x1="51.9824" y1="15.9978" x2="51.9824" y2="32.0022" gradientUnits="userSpaceOnUse">
<stop stop-color="#ED00D5"/>
<stop offset="0.9998" stop-color="#0154A2"/>
<stop offset="0.9999" stop-color="#00A3D7"/>
<stop offset="1" stop-color="#002FD7"/>
</linearGradient>
<linearGradient id="paint2_linear" x1="120" y1="10.6667" x2="120" y2="16" gradientUnits="userSpaceOnUse">
<stop stop-color="#ED00D5"/>
<stop offset="0.9998" stop-color="#0154A2"/>
<stop offset="0.9999" stop-color="#00A3D7"/>
<stop offset="1" stop-color="#002FD7"/>
</linearGradient>
<linearGradient id="paint3_linear" x1="130.667" y1="10.6667" x2="130.667" y2="16" gradientUnits="userSpaceOnUse">
<stop stop-color="#ED00D5"/>
<stop offset="0.9998" stop-color="#0154A2"/>
<stop offset="0.9999" stop-color="#00A3D7"/>
<stop offset="1" stop-color="#002FD7"/>
</linearGradient>
<linearGradient id="paint4_linear" x1="141.333" y1="10.6667" x2="141.333" y2="16" gradientUnits="userSpaceOnUse">
<stop stop-color="#ED00D5"/>
<stop offset="0.9998" stop-color="#0154A2"/>
<stop offset="0.9999" stop-color="#00A3D7"/>
<stop offset="1" stop-color="#002FD7"/>
</linearGradient>
<linearGradient id="paint5_linear" x1="109.333" y1="10.6667" x2="109.333" y2="16" gradientUnits="userSpaceOnUse">
<stop stop-color="#ED00D5"/>
<stop offset="0.9998" stop-color="#0154A2"/>
<stop offset="0.9999" stop-color="#00A3D7"/>
<stop offset="1" stop-color="#002FD7"/>
</linearGradient>
<linearGradient id="paint6_linear" x1="98.6667" y1="10.6667" x2="98.6667" y2="16" gradientUnits="userSpaceOnUse">
<stop stop-color="#ED00D5"/>
<stop offset="0.9998" stop-color="#0154A2"/>
<stop offset="0.9999" stop-color="#00A3D7"/>
<stop offset="1" stop-color="#002FD7"/>
</linearGradient>
<linearGradient id="paint7_linear" x1="120" y1="21.3333" x2="120" y2="26.6667" gradientUnits="userSpaceOnUse">
<stop stop-color="#ED00D5"/>
<stop offset="0.9998" stop-color="#0154A2"/>
<stop offset="0.9999" stop-color="#00A3D7"/>
<stop offset="1" stop-color="#002FD7"/>
</linearGradient>
<linearGradient id="paint8_linear" x1="130.667" y1="21.3333" x2="130.667" y2="26.6667" gradientUnits="userSpaceOnUse">
<stop stop-color="#ED00D5"/>
<stop offset="0.9998" stop-color="#0154A2"/>
<stop offset="0.9999" stop-color="#00A3D7"/>
<stop offset="1" stop-color="#002FD7"/>
</linearGradient>
<linearGradient id="paint9_linear" x1="141.333" y1="21.3333" x2="141.333" y2="26.6667" gradientUnits="userSpaceOnUse">
<stop stop-color="#ED00D5"/>
<stop offset="0.9998" stop-color="#0154A2"/>
<stop offset="0.9999" stop-color="#00A3D7"/>
<stop offset="1" stop-color="#002FD7"/>
</linearGradient>
<linearGradient id="paint10_linear" x1="109.333" y1="21.3333" x2="109.333" y2="26.6667" gradientUnits="userSpaceOnUse">
<stop stop-color="#ED00D5"/>
<stop offset="0.9998" stop-color="#0154A2"/>
<stop offset="0.9999" stop-color="#00A3D7"/>
<stop offset="1" stop-color="#002FD7"/>
</linearGradient>
<linearGradient id="paint11_linear" x1="98.6667" y1="21.3333" x2="98.6667" y2="26.6667" gradientUnits="userSpaceOnUse">
<stop stop-color="#ED00D5"/>
<stop offset="0.9998" stop-color="#0154A2"/>
<stop offset="0.9999" stop-color="#00A3D7"/>
<stop offset="1" stop-color="#002FD7"/>
</linearGradient>
<linearGradient id="paint12_linear" x1="120" y1="32" x2="120" y2="37.3333" gradientUnits="userSpaceOnUse">
<stop stop-color="#ED00D5"/>
<stop offset="0.9998" stop-color="#0154A2"/>
<stop offset="0.9999" stop-color="#00A3D7"/>
<stop offset="1" stop-color="#002FD7"/>
</linearGradient>
<linearGradient id="paint13_linear" x1="130.667" y1="32" x2="130.667" y2="37.3333" gradientUnits="userSpaceOnUse">
<stop stop-color="#ED00D5"/>
<stop offset="0.9998" stop-color="#0154A2"/>
<stop offset="0.9999" stop-color="#00A3D7"/>
<stop offset="1" stop-color="#002FD7"/>
</linearGradient>
<linearGradient id="paint14_linear" x1="141.333" y1="32" x2="141.333" y2="37.3333" gradientUnits="userSpaceOnUse">
<stop stop-color="#ED00D5"/>
<stop offset="0.9998" stop-color="#0154A2"/>
<stop offset="0.9999" stop-color="#00A3D7"/>
<stop offset="1" stop-color="#002FD7"/>
</linearGradient>
<linearGradient id="paint15_linear" x1="109.333" y1="32" x2="109.333" y2="37.3333" gradientUnits="userSpaceOnUse">
<stop stop-color="#ED00D5"/>
<stop offset="0.9998" stop-color="#0154A2"/>
<stop offset="0.9999" stop-color="#00A3D7"/>
<stop offset="1" stop-color="#002FD7"/>
</linearGradient>
<linearGradient id="paint16_linear" x1="98.6667" y1="32" x2="98.6667" y2="37.3333" gradientUnits="userSpaceOnUse">
<stop stop-color="#ED00D5"/>
<stop offset="0.9998" stop-color="#0154A2"/>
<stop offset="0.9999" stop-color="#00A3D7"/>
<stop offset="1" stop-color="#002FD7"/>
</linearGradient>
<linearGradient id="paint17_linear" x1="51.9824" y1="71.9978" x2="51.9824" y2="88.0022" gradientUnits="userSpaceOnUse">
<stop stop-color="#ED00D5"/>
<stop offset="0.9998" stop-color="#0154A2"/>
<stop offset="0.9999" stop-color="#00A3D7"/>
<stop offset="1" stop-color="#002FD7"/>
</linearGradient>
<linearGradient id="paint18_linear" x1="120" y1="66.6667" x2="120" y2="72" gradientUnits="userSpaceOnUse">
<stop stop-color="#ED00D5"/>
<stop offset="0.9998" stop-color="#0154A2"/>
<stop offset="0.9999" stop-color="#00A3D7"/>
<stop offset="1" stop-color="#002FD7"/>
</linearGradient>
<linearGradient id="paint19_linear" x1="130.667" y1="66.6667" x2="130.667" y2="72" gradientUnits="userSpaceOnUse">
<stop stop-color="#ED00D5"/>
<stop offset="0.9998" stop-color="#0154A2"/>
<stop offset="0.9999" stop-color="#00A3D7"/>
<stop offset="1" stop-color="#002FD7"/>
</linearGradient>
<linearGradient id="paint20_linear" x1="141.333" y1="66.6667" x2="141.333" y2="72" gradientUnits="userSpaceOnUse">
<stop stop-color="#ED00D5"/>
<stop offset="0.9998" stop-color="#0154A2"/>
<stop offset="0.9999" stop-color="#00A3D7"/>
<stop offset="1" stop-color="#002FD7"/>
</linearGradient>
<linearGradient id="paint21_linear" x1="109.333" y1="66.6667" x2="109.333" y2="72" gradientUnits="userSpaceOnUse">
<stop stop-color="#ED00D5"/>
<stop offset="0.9998" stop-color="#0154A2"/>
<stop offset="0.9999" stop-color="#00A3D7"/>
<stop offset="1" stop-color="#002FD7"/>
</linearGradient>
<linearGradient id="paint22_linear" x1="98.6667" y1="66.6667" x2="98.6667" y2="72" gradientUnits="userSpaceOnUse">
<stop stop-color="#ED00D5"/>
<stop offset="0.9998" stop-color="#0154A2"/>
<stop offset="0.9999" stop-color="#00A3D7"/>
<stop offset="1" stop-color="#002FD7"/>
</linearGradient>
<linearGradient id="paint23_linear" x1="120" y1="77.3333" x2="120" y2="82.6667" gradientUnits="userSpaceOnUse">
<stop stop-color="#ED00D5"/>
<stop offset="0.9998" stop-color="#0154A2"/>
<stop offset="0.9999" stop-color="#00A3D7"/>
<stop offset="1" stop-color="#002FD7"/>
</linearGradient>
<linearGradient id="paint24_linear" x1="130.667" y1="77.3333" x2="130.667" y2="82.6667" gradientUnits="userSpaceOnUse">
<stop stop-color="#ED00D5"/>
<stop offset="0.9998" stop-color="#0154A2"/>
<stop offset="0.9999" stop-color="#00A3D7"/>
<stop offset="1" stop-color="#002FD7"/>
</linearGradient>
<linearGradient id="paint25_linear" x1="141.333" y1="77.3333" x2="141.333" y2="82.6667" gradientUnits="userSpaceOnUse">
<stop stop-color="#ED00D5"/>
<stop offset="0.9998" stop-color="#0154A2"/>
<stop offset="0.9999" stop-color="#00A3D7"/>
<stop offset="1" stop-color="#002FD7"/>
</linearGradient>
<linearGradient id="paint26_linear" x1="109.333" y1="77.3333" x2="109.333" y2="82.6667" gradientUnits="userSpaceOnUse">
<stop stop-color="#ED00D5"/>
<stop offset="0.9998" stop-color="#0154A2"/>
<stop offset="0.9999" stop-color="#00A3D7"/>
<stop offset="1" stop-color="#002FD7"/>
</linearGradient>
<linearGradient id="paint27_linear" x1="98.6667" y1="77.3333" x2="98.6667" y2="82.6667" gradientUnits="userSpaceOnUse">
<stop stop-color="#ED00D5"/>
<stop offset="0.9998" stop-color="#0154A2"/>
<stop offset="0.9999" stop-color="#00A3D7"/>
<stop offset="1" stop-color="#002FD7"/>
</linearGradient>
<linearGradient id="paint28_linear" x1="120" y1="88" x2="120" y2="93.3333" gradientUnits="userSpaceOnUse">
<stop stop-color="#ED00D5"/>
<stop offset="0.9998" stop-color="#0154A2"/>
<stop offset="0.9999" stop-color="#00A3D7"/>
<stop offset="1" stop-color="#002FD7"/>
</linearGradient>
<linearGradient id="paint29_linear" x1="130.667" y1="88" x2="130.667" y2="93.3333" gradientUnits="userSpaceOnUse">
<stop stop-color="#ED00D5"/>
<stop offset="0.9998" stop-color="#0154A2"/>
<stop offset="0.9999" stop-color="#00A3D7"/>
<stop offset="1" stop-color="#002FD7"/>
</linearGradient>
<linearGradient id="paint30_linear" x1="141.333" y1="88" x2="141.333" y2="93.3333" gradientUnits="userSpaceOnUse">
<stop stop-color="#ED00D5"/>
<stop offset="0.9998" stop-color="#0154A2"/>
<stop offset="0.9999" stop-color="#00A3D7"/>
<stop offset="1" stop-color="#002FD7"/>
</linearGradient>
<linearGradient id="paint31_linear" x1="109.333" y1="88" x2="109.333" y2="93.3333" gradientUnits="userSpaceOnUse">
<stop stop-color="#ED00D5"/>
<stop offset="0.9998" stop-color="#0154A2"/>
<stop offset="0.9999" stop-color="#00A3D7"/>
<stop offset="1" stop-color="#002FD7"/>
</linearGradient>
<linearGradient id="paint32_linear" x1="98.6667" y1="88" x2="98.6667" y2="93.3333" gradientUnits="userSpaceOnUse">
<stop stop-color="#ED00D5"/>
<stop offset="0.9998" stop-color="#0154A2"/>
<stop offset="0.9999" stop-color="#00A3D7"/>
<stop offset="1" stop-color="#002FD7"/>
</linearGradient>
<linearGradient id="paint33_linear" x1="51.9824" y1="127.998" x2="51.9824" y2="144.002" gradientUnits="userSpaceOnUse">
<stop stop-color="#ED00D5"/>
<stop offset="0.9998" stop-color="#0154A2"/>
<stop offset="0.9999" stop-color="#00A3D7"/>
<stop offset="1" stop-color="#002FD7"/>
</linearGradient>
<linearGradient id="paint34_linear" x1="120" y1="122.667" x2="120" y2="128" gradientUnits="userSpaceOnUse">
<stop stop-color="#ED00D5"/>
<stop offset="0.9998" stop-color="#0154A2"/>
<stop offset="0.9999" stop-color="#00A3D7"/>
<stop offset="1" stop-color="#002FD7"/>
</linearGradient>
<linearGradient id="paint35_linear" x1="130.667" y1="122.667" x2="130.667" y2="128" gradientUnits="userSpaceOnUse">
<stop stop-color="#ED00D5"/>
<stop offset="0.9998" stop-color="#0154A2"/>
<stop offset="0.9999" stop-color="#00A3D7"/>
<stop offset="1" stop-color="#002FD7"/>
</linearGradient>
<linearGradient id="paint36_linear" x1="141.333" y1="122.667" x2="141.333" y2="128" gradientUnits="userSpaceOnUse">
<stop stop-color="#ED00D5"/>
<stop offset="0.9998" stop-color="#0154A2"/>
<stop offset="0.9999" stop-color="#00A3D7"/>
<stop offset="1" stop-color="#002FD7"/>
</linearGradient>
<linearGradient id="paint37_linear" x1="109.333" y1="122.667" x2="109.333" y2="128" gradientUnits="userSpaceOnUse">
<stop stop-color="#ED00D5"/>
<stop offset="0.9998" stop-color="#0154A2"/>
<stop offset="0.9999" stop-color="#00A3D7"/>
<stop offset="1" stop-color="#002FD7"/>
</linearGradient>
<linearGradient id="paint38_linear" x1="98.6667" y1="122.667" x2="98.6667" y2="128" gradientUnits="userSpaceOnUse">
<stop stop-color="#ED00D5"/>
<stop offset="0.9998" stop-color="#0154A2"/>
<stop offset="0.9999" stop-color="#00A3D7"/>
<stop offset="1" stop-color="#002FD7"/>
</linearGradient>
<linearGradient id="paint39_linear" x1="120" y1="133.333" x2="120" y2="138.667" gradientUnits="userSpaceOnUse">
<stop stop-color="#ED00D5"/>
<stop offset="0.9998" stop-color="#0154A2"/>
<stop offset="0.9999" stop-color="#00A3D7"/>
<stop offset="1" stop-color="#002FD7"/>
</linearGradient>
<linearGradient id="paint40_linear" x1="130.667" y1="133.333" x2="130.667" y2="138.667" gradientUnits="userSpaceOnUse">
<stop stop-color="#ED00D5"/>
<stop offset="0.9998" stop-color="#0154A2"/>
<stop offset="0.9999" stop-color="#00A3D7"/>
<stop offset="1" stop-color="#002FD7"/>
</linearGradient>
<linearGradient id="paint41_linear" x1="141.333" y1="133.333" x2="141.333" y2="138.667" gradientUnits="userSpaceOnUse">
<stop stop-color="#ED00D5"/>
<stop offset="0.9998" stop-color="#0154A2"/>
<stop offset="0.9999" stop-color="#00A3D7"/>
<stop offset="1" stop-color="#002FD7"/>
</linearGradient>
<linearGradient id="paint42_linear" x1="109.333" y1="133.333" x2="109.333" y2="138.667" gradientUnits="userSpaceOnUse">
<stop stop-color="#ED00D5"/>
<stop offset="0.9998" stop-color="#0154A2"/>
<stop offset="0.9999" stop-color="#00A3D7"/>
<stop offset="1" stop-color="#002FD7"/>
</linearGradient>
<linearGradient id="paint43_linear" x1="98.6667" y1="133.333" x2="98.6667" y2="138.667" gradientUnits="userSpaceOnUse">
<stop stop-color="#ED00D5"/>
<stop offset="0.9998" stop-color="#0154A2"/>
<stop offset="0.9999" stop-color="#00A3D7"/>
<stop offset="1" stop-color="#002FD7"/>
</linearGradient>
<linearGradient id="paint44_linear" x1="120" y1="144" x2="120" y2="149.333" gradientUnits="userSpaceOnUse">
<stop stop-color="#ED00D5"/>
<stop offset="0.9998" stop-color="#0154A2"/>
<stop offset="0.9999" stop-color="#00A3D7"/>
<stop offset="1" stop-color="#002FD7"/>
</linearGradient>
<linearGradient id="paint45_linear" x1="130.667" y1="144" x2="130.667" y2="149.333" gradientUnits="userSpaceOnUse">
<stop stop-color="#ED00D5"/>
<stop offset="0.9998" stop-color="#0154A2"/>
<stop offset="0.9999" stop-color="#00A3D7"/>
<stop offset="1" stop-color="#002FD7"/>
</linearGradient>
<linearGradient id="paint46_linear" x1="141.333" y1="144" x2="141.333" y2="149.333" gradientUnits="userSpaceOnUse">
<stop stop-color="#ED00D5"/>
<stop offset="0.9998" stop-color="#0154A2"/>
<stop offset="0.9999" stop-color="#00A3D7"/>
<stop offset="1" stop-color="#002FD7"/>
</linearGradient>
<linearGradient id="paint47_linear" x1="109.333" y1="144" x2="109.333" y2="149.333" gradientUnits="userSpaceOnUse">
<stop stop-color="#ED00D5"/>
<stop offset="0.9998" stop-color="#0154A2"/>
<stop offset="0.9999" stop-color="#00A3D7"/>
<stop offset="1" stop-color="#002FD7"/>
</linearGradient>
<linearGradient id="paint48_linear" x1="98.6667" y1="144" x2="98.6667" y2="149.333" gradientUnits="userSpaceOnUse">
<stop stop-color="#ED00D5"/>
<stop offset="0.9998" stop-color="#0154A2"/>
<stop offset="0.9999" stop-color="#00A3D7"/>
<stop offset="1" stop-color="#002FD7"/>
</linearGradient>
</defs>
</svg>
