<svg width="159" height="159" viewBox="0 0 159 159" fill="none" xmlns="http://www.w3.org/2000/svg">
<path d="M126.703 40.7785L145.85 21.6315L142.337 18.1185L126.703 33.7527L121.006 28.056L117.494 31.569L126.703 40.7785Z" fill="url(#paint0_linear)"/>
<path d="M52.1719 32.2969H57.1406V37.2656H52.1719V32.2969Z" fill="url(#paint1_linear)"/>
<path d="M42.2344 32.2969H47.2031V37.2656H42.2344V32.2969Z" fill="url(#paint2_linear)"/>
<path d="M32.2969 32.2969H37.2656V37.2656H32.2969V32.2969Z" fill="url(#paint3_linear)"/>
<path d="M72.0469 32.2969H77.0156V37.2656H72.0469V32.2969Z" fill="url(#paint4_linear)"/>
<path d="M91.9219 32.2969H96.8906V37.2656H91.9219V32.2969Z" fill="url(#paint5_linear)"/>
<path d="M22.3594 32.2969H27.3281V37.2656H22.3594V32.2969Z" fill="url(#paint6_linear)"/>
<path d="M62.1094 32.2969H67.0781V37.2656H62.1094V32.2969Z" fill="url(#paint7_linear)"/>
<path d="M81.9844 32.2969H86.9531V37.2656H81.9844V32.2969Z" fill="url(#paint8_linear)"/>
<path d="M156.516 27.3281C156.516 13.6293 145.371 2.48438 131.672 2.48438C123.568 2.48438 116.383 6.40223 111.844 12.4219H9.9375C5.82834 12.4219 2.48438 15.7658 2.48438 19.875V104.344C2.48438 108.453 5.82834 111.797 9.9375 111.797H55.655L55.7519 111.991C56.6611 113.807 57.1406 115.836 57.1406 117.864V128.07C57.1406 130.738 57.7667 133.413 58.9542 135.803L64.5938 147.159V156.404L109.312 156.521V147.405L113.287 142.106C115.531 139.115 116.766 135.408 116.766 131.672V111.797H139.125C143.234 111.797 146.578 108.453 146.578 104.344V47.1559C152.598 42.617 156.516 35.4322 156.516 27.3281ZM131.672 7.45313C142.63 7.45313 151.547 16.3695 151.547 27.3281C151.547 38.2867 142.63 47.2031 131.672 47.2031C120.713 47.2031 111.797 38.2867 111.797 27.3281C111.797 16.3695 120.713 7.45313 131.672 7.45313ZM111.844 42.2344H17.3906V27.3281H106.828C106.828 32.9254 108.711 38.0755 111.844 42.2344ZM111.797 131.672C111.797 134.343 110.915 136.988 109.312 139.125L104.344 145.751V151.542L69.5625 151.448V145.994L63.4037 133.592C62.5566 131.886 62.1094 129.978 62.1094 128.07V117.864C62.1094 115.069 61.4485 112.269 60.1964 109.767L57.3021 103.979C57.1978 103.767 57.1406 103.526 57.1406 103.29C57.1406 102.443 57.8313 101.755 58.9145 101.755C66.1564 101.755 72.0469 107.648 72.0469 114.89V119.146V124.114H77.0156V119.146V114.89V77.0156C77.0156 75.6467 78.1311 74.5313 79.5 74.5313C80.8689 74.5313 81.9844 75.6467 81.9844 77.0156V99.375V109.313H86.9531V99.375C86.9531 98.0061 88.0686 96.8906 89.4375 96.8906C90.8064 96.8906 91.9219 98.0061 91.9219 99.375V109.313H96.8906V99.375C96.8906 98.0061 98.0061 96.8906 99.375 96.8906C100.744 96.8906 101.859 98.0061 101.859 99.375V104.344V109.313H106.828V104.344C106.828 102.975 107.944 101.859 109.312 101.859C110.681 101.859 111.797 102.975 111.797 104.344V131.672ZM141.609 104.344C141.609 105.713 140.494 106.828 139.125 106.828H116.766V104.344C116.766 100.235 113.422 96.8906 109.312 96.8906C108.331 96.8906 107.4 97.0919 106.54 97.4372C105.683 94.2696 102.811 91.9219 99.375 91.9219C97.4595 91.9219 95.7279 92.6697 94.4062 93.8597C93.0846 92.6672 91.353 91.9219 89.4375 91.9219C88.563 91.9219 87.7332 92.1008 86.9531 92.379V77.0156C86.9531 72.9065 83.6092 69.5625 79.5 69.5625C75.3908 69.5625 72.0469 72.9065 72.0469 77.0156V102.498C68.7153 98.9924 63.9851 96.7863 58.6785 96.7863C55.0935 96.7863 52.1744 99.7029 52.1719 103.29C52.1719 104.294 52.4104 105.3 52.8576 106.202L53.1731 106.828H9.9375C8.56861 106.828 7.45312 105.713 7.45312 104.344V19.875C7.45312 18.5061 8.56861 17.3906 9.9375 17.3906H108.917C108.224 18.9707 107.683 20.6303 107.33 22.3594H12.4219V47.2031H116.828C120.974 50.3086 126.102 52.1719 131.672 52.1719C135.205 52.1719 138.564 51.4191 141.609 50.0825V104.344Z" fill="url(#paint9_linear)"/>
<path d="M27.3281 52.1719C19.1073 52.1719 12.4219 58.8573 12.4219 67.0781C12.4219 75.2989 19.1073 81.9844 27.3281 81.9844C35.5489 81.9844 42.2344 75.2989 42.2344 67.0781C42.2344 58.8573 35.5489 52.1719 27.3281 52.1719ZM27.3281 77.0156C21.8476 77.0156 17.3906 72.5587 17.3906 67.0781C17.3906 61.5976 21.8476 57.1406 27.3281 57.1406C32.8087 57.1406 37.2656 61.5976 37.2656 67.0781C37.2656 72.5587 32.8087 77.0156 27.3281 77.0156Z" fill="url(#paint10_linear)"/>
<path d="M52.1719 67.0781H67.0781V52.1719H52.1719V67.0781ZM57.1406 57.1406H62.1094V62.1094H57.1406V57.1406Z" fill="url(#paint11_linear)"/>
<path d="M52.1719 86.9531H67.0781V72.0469H52.1719V86.9531ZM57.1406 77.0156H62.1094V81.9844H57.1406V77.0156Z" fill="url(#paint12_linear)"/>
<path d="M72.0469 67.0781H86.9531V52.1719H72.0469V67.0781ZM77.0156 57.1406H81.9844V62.1094H77.0156V57.1406Z" fill="url(#paint13_linear)"/>
<path d="M91.9219 67.0781H106.828V52.1719H91.9219V67.0781ZM96.8906 57.1406H101.859V62.1094H96.8906V57.1406Z" fill="url(#paint14_linear)"/>
<path d="M91.9219 86.9531H106.828V72.0469H91.9219V86.9531ZM96.8906 77.0156H101.859V81.9844H96.8906V77.0156Z" fill="url(#paint15_linear)"/>
<path d="M111.797 91.9219H136.641V57.1406H111.797V91.9219ZM116.766 62.1094H131.672V86.9531H116.766V62.1094Z" fill="url(#paint16_linear)"/>
<path d="M12.4219 101.859H42.2344V86.9531H12.4219V101.859ZM17.3906 91.9219H37.2656V96.8906H17.3906V91.9219Z" fill="url(#paint17_linear)"/>
<defs>
<linearGradient id="paint0_linear" x1="131.672" y1="18.1185" x2="131.672" y2="40.7785" gradientUnits="userSpaceOnUse">
<stop stop-color="#FF00B8"/>
<stop offset="0.9999" stop-color="#0020CA"/>
<stop offset="1" stop-color="#0068E2"/>
</linearGradient>
<linearGradient id="paint1_linear" x1="54.6562" y1="32.2969" x2="54.6562" y2="37.2656" gradientUnits="userSpaceOnUse">
<stop stop-color="#FF00B8"/>
<stop offset="0.9999" stop-color="#0020CA"/>
<stop offset="1" stop-color="#0068E2"/>
</linearGradient>
<linearGradient id="paint2_linear" x1="44.7188" y1="32.2969" x2="44.7188" y2="37.2656" gradientUnits="userSpaceOnUse">
<stop stop-color="#FF00B8"/>
<stop offset="0.9999" stop-color="#0020CA"/>
<stop offset="1" stop-color="#0068E2"/>
</linearGradient>
<linearGradient id="paint3_linear" x1="34.7812" y1="32.2969" x2="34.7812" y2="37.2656" gradientUnits="userSpaceOnUse">
<stop stop-color="#FF00B8"/>
<stop offset="0.9999" stop-color="#0020CA"/>
<stop offset="1" stop-color="#0068E2"/>
</linearGradient>
<linearGradient id="paint4_linear" x1="74.5312" y1="32.2969" x2="74.5312" y2="37.2656" gradientUnits="userSpaceOnUse">
<stop stop-color="#FF00B8"/>
<stop offset="0.9999" stop-color="#0020CA"/>
<stop offset="1" stop-color="#0068E2"/>
</linearGradient>
<linearGradient id="paint5_linear" x1="94.4062" y1="32.2969" x2="94.4062" y2="37.2656" gradientUnits="userSpaceOnUse">
<stop stop-color="#FF00B8"/>
<stop offset="0.9999" stop-color="#0020CA"/>
<stop offset="1" stop-color="#0068E2"/>
</linearGradient>
<linearGradient id="paint6_linear" x1="24.8438" y1="32.2969" x2="24.8438" y2="37.2656" gradientUnits="userSpaceOnUse">
<stop stop-color="#FF00B8"/>
<stop offset="0.9999" stop-color="#0020CA"/>
<stop offset="1" stop-color="#0068E2"/>
</linearGradient>
<linearGradient id="paint7_linear" x1="64.5938" y1="32.2969" x2="64.5938" y2="37.2656" gradientUnits="userSpaceOnUse">
<stop stop-color="#FF00B8"/>
<stop offset="0.9999" stop-color="#0020CA"/>
<stop offset="1" stop-color="#0068E2"/>
</linearGradient>
<linearGradient id="paint8_linear" x1="84.4688" y1="32.2969" x2="84.4688" y2="37.2656" gradientUnits="userSpaceOnUse">
<stop stop-color="#FF00B8"/>
<stop offset="0.9999" stop-color="#0020CA"/>
<stop offset="1" stop-color="#0068E2"/>
</linearGradient>
<linearGradient id="paint9_linear" x1="79.5" y1="2.48437" x2="79.5" y2="156.521" gradientUnits="userSpaceOnUse">
<stop stop-color="#FF00B8"/>
<stop offset="0.9999" stop-color="#0020CA"/>
<stop offset="1" stop-color="#0068E2"/>
</linearGradient>
<linearGradient id="paint10_linear" x1="27.3281" y1="52.1719" x2="27.3281" y2="81.9844" gradientUnits="userSpaceOnUse">
<stop stop-color="#FF00B8"/>
<stop offset="0.9999" stop-color="#0020CA"/>
<stop offset="1" stop-color="#0068E2"/>
</linearGradient>
<linearGradient id="paint11_linear" x1="59.625" y1="52.1719" x2="59.625" y2="67.0781" gradientUnits="userSpaceOnUse">
<stop stop-color="#FF00B8"/>
<stop offset="0.9999" stop-color="#0020CA"/>
<stop offset="1" stop-color="#0068E2"/>
</linearGradient>
<linearGradient id="paint12_linear" x1="59.625" y1="72.0469" x2="59.625" y2="86.9531" gradientUnits="userSpaceOnUse">
<stop stop-color="#FF00B8"/>
<stop offset="0.9999" stop-color="#0020CA"/>
<stop offset="1" stop-color="#0068E2"/>
</linearGradient>
<linearGradient id="paint13_linear" x1="79.5" y1="52.1719" x2="79.5" y2="67.0781" gradientUnits="userSpaceOnUse">
<stop stop-color="#FF00B8"/>
<stop offset="0.9999" stop-color="#0020CA"/>
<stop offset="1" stop-color="#0068E2"/>
</linearGradient>
<linearGradient id="paint14_linear" x1="99.375" y1="52.1719" x2="99.375" y2="67.0781" gradientUnits="userSpaceOnUse">
<stop stop-color="#FF00B8"/>
<stop offset="0.9999" stop-color="#0020CA"/>
<stop offset="1" stop-color="#0068E2"/>
</linearGradient>
<linearGradient id="paint15_linear" x1="99.375" y1="72.0469" x2="99.375" y2="86.9531" gradientUnits="userSpaceOnUse">
<stop stop-color="#FF00B8"/>
<stop offset="0.9999" stop-color="#0020CA"/>
<stop offset="1" stop-color="#0068E2"/>
</linearGradient>
<linearGradient id="paint16_linear" x1="124.219" y1="57.1406" x2="124.219" y2="91.9219" gradientUnits="userSpaceOnUse">
<stop stop-color="#FF00B8"/>
<stop offset="0.9999" stop-color="#0020CA"/>
<stop offset="1" stop-color="#0068E2"/>
</linearGradient>
<linearGradient id="paint17_linear" x1="27.3281" y1="86.9531" x2="27.3281" y2="101.859" gradientUnits="userSpaceOnUse">
<stop stop-color="#FF00B8"/>
<stop offset="0.9999" stop-color="#0020CA"/>
<stop offset="1" stop-color="#0068E2"/>
</linearGradient>
</defs>
</svg>
