<svg width="160" height="160" viewBox="0 0 160 160" fill="none" xmlns="http://www.w3.org/2000/svg">
<g clip-path="url(#clip0)">
<path d="M142.304 0.231567H17.6962C7.93844 0.231567 0 8.17 0 17.9278V105.613C0 115.371 7.93844 123.309 17.6962 123.309H67.3819L65.1659 141.204H58.4366C53.1975 141.204 48.9353 145.466 48.9353 150.705V153.518H35.2731C33.5472 153.518 32.1481 154.917 32.1481 156.643C32.1481 158.369 33.5472 159.768 35.2731 159.768H124.727C126.453 159.768 127.852 158.369 127.852 156.643C127.852 154.917 126.453 153.518 124.727 153.518H111.065V150.705C111.065 145.466 106.802 141.204 101.563 141.204H94.8341L92.6181 123.309H142.304C152.062 123.309 160 115.371 160 105.613C160 102.545 160 21.6856 160 17.9278C160 8.17 152.062 0.231567 142.304 0.231567ZM104.815 150.705V153.518H55.1853V150.705C55.1853 148.912 56.6437 147.454 58.4366 147.454H101.563C103.356 147.454 104.815 148.912 104.815 150.705ZM88.5363 141.204H71.4634L73.6794 123.309H86.3203L88.5363 141.204ZM153.75 105.613C153.75 111.925 148.615 117.059 142.304 117.059C136.31 117.059 26.2891 117.059 17.6962 117.059C11.3847 117.059 6.25 111.925 6.25 105.613V103.013H114.688C116.413 103.013 117.812 101.614 117.812 99.8881C117.812 98.1622 116.413 96.7631 114.688 96.7631H6.25V17.9278C6.25 11.6163 11.3847 6.48157 17.6962 6.48157H142.304C148.615 6.48157 153.75 11.6163 153.75 17.9278V96.7631H139.688C137.962 96.7631 136.562 98.1622 136.562 99.8881C136.562 101.614 137.962 103.013 139.688 103.013H153.75V105.613Z" fill="url(#paint0_linear)"/>
<path d="M134.828 15.1419L131.85 12.6344C130.53 11.5231 128.558 11.6916 127.447 13.0119C126.335 14.3322 126.504 16.3034 127.824 17.4153L129.588 18.9006H48.0625L49.8266 17.4153C51.1466 16.3034 51.3156 14.3322 50.2041 13.0119C49.0922 11.6916 47.1209 11.5234 45.8006 12.6344L42.8228 15.1419C38.5581 18.7331 38.5488 25.31 42.8228 28.9094C45.3488 30.8234 46 32.1516 47.8119 32.1516C48.7019 32.1516 49.5856 31.7734 50.2037 31.0394C51.3153 29.7191 51.1462 27.7478 49.8262 26.6359L48.0622 25.1506H129.588L127.824 26.6359C126.504 27.7478 126.335 29.7191 127.447 31.0394C128.553 32.3531 130.523 32.5334 131.85 31.4169C133.281 29.8581 138.03 27.7413 138.03 22.0256C138.03 19.3647 136.863 16.8556 134.828 15.1419Z" fill="url(#paint1_linear)"/>
<path d="M34.9253 39.3438C37.5575 39.3438 39.0291 36.2425 37.3144 34.2059C35.7556 32.7747 33.6387 28.0259 27.9231 28.0259C22.2122 28.0259 20.0878 32.7772 18.5319 34.2059C17.4203 35.5263 17.5894 37.4975 18.9094 38.6094C20.2297 39.7213 22.2009 39.5522 23.3128 38.2319L24.7981 36.4678V80.4006L23.3128 78.6366C22.2009 77.3166 20.2297 77.1478 18.9094 78.2591C17.5894 79.3709 17.4203 81.3422 18.5319 82.6625C20.0906 84.0937 22.2075 88.8428 27.9231 88.8428C33.6341 88.8428 35.7584 84.0916 37.3144 82.6625C38.4259 81.3422 38.2569 79.3709 36.9369 78.2591C35.6169 77.1475 33.6456 77.3162 32.5334 78.6366L31.0481 80.4006V36.4678C32.1334 37.5128 32.7972 39.3438 34.9253 39.3438Z" fill="url(#paint2_linear)"/>
<path d="M72.7513 38.2991H53.1934C48.5037 38.2991 44.6884 42.1144 44.6884 46.8041V77.8034C44.6884 82.4931 48.5037 86.3084 53.1934 86.3084H72.7513C77.4409 86.3084 81.2562 82.4931 81.2562 77.8034V46.8041C81.2562 42.1144 77.4409 38.2991 72.7513 38.2991ZM75.0063 77.8034C75.0063 79.0469 73.9947 80.0584 72.7513 80.0584H53.1934C51.95 80.0584 50.9384 79.0469 50.9384 77.8034V46.8041C50.9384 45.5606 51.95 44.5491 53.1934 44.5491H72.7513C73.9947 44.5491 75.0063 45.5606 75.0063 46.8041V77.8034Z" fill="url(#paint3_linear)"/>
<path d="M124.457 38.2991H94.2053C89.5156 38.2991 85.7003 42.1144 85.7003 46.8041V51.5941C85.7003 56.2838 89.5156 60.0991 94.2053 60.0991H124.457C129.147 60.0991 132.962 56.2838 132.962 51.5941V46.8041C132.962 42.1144 129.147 38.2991 124.457 38.2991ZM126.712 51.5941C126.712 52.8375 125.701 53.8491 124.457 53.8491H94.2053C92.9619 53.8491 91.9503 52.8375 91.9503 51.5941V46.8041C91.9503 45.5606 92.9619 44.5491 94.2053 44.5491H124.457C125.701 44.5491 126.712 45.5606 126.712 46.8041V51.5941Z" fill="url(#paint4_linear)"/>
<path d="M124.457 64.5084H94.2053C89.5156 64.5084 85.7003 68.3238 85.7003 73.0134V77.8034C85.7003 82.4931 89.5156 86.3084 94.2053 86.3084H124.457C129.147 86.3084 132.962 82.4931 132.962 77.8034V73.0134C132.962 68.3238 129.147 64.5084 124.457 64.5084ZM126.712 77.8034C126.712 79.0469 125.701 80.0584 124.457 80.0584H94.2053C92.9619 80.0584 91.9503 79.0469 91.9503 77.8034V73.0134C91.9503 71.77 92.9619 70.7584 94.2053 70.7584H124.457C125.701 70.7584 126.712 71.77 126.712 73.0134V77.8034Z" fill="url(#paint5_linear)"/>
<path d="M127.195 96.7631H127.187C125.462 96.7631 124.066 98.1622 124.066 99.8881C124.066 101.614 125.469 103.013 127.195 103.013C128.921 103.013 130.32 101.614 130.32 99.8881C130.32 98.1622 128.921 96.7631 127.195 96.7631Z" fill="url(#paint6_linear)"/>
</g>
<defs>
<linearGradient id="paint0_linear" x1="80" y1="0.231567" x2="80" y2="159.768" gradientUnits="userSpaceOnUse">
<stop stop-color="#EE00C8"/>
<stop offset="0.9999" stop-color="#005BC7"/>
<stop offset="1" stop-color="#0009EB"/>
</linearGradient>
<linearGradient id="paint1_linear" x1="88.8255" y1="11.8998" x2="88.8255" y2="32.1516" gradientUnits="userSpaceOnUse">
<stop stop-color="#EE00C8"/>
<stop offset="0.9999" stop-color="#005BC7"/>
<stop offset="1" stop-color="#0009EB"/>
</linearGradient>
<linearGradient id="paint2_linear" x1="27.9247" y1="28.0259" x2="27.9247" y2="88.8428" gradientUnits="userSpaceOnUse">
<stop stop-color="#EE00C8"/>
<stop offset="0.9999" stop-color="#005BC7"/>
<stop offset="1" stop-color="#0009EB"/>
</linearGradient>
<linearGradient id="paint3_linear" x1="62.9723" y1="38.2991" x2="62.9723" y2="86.3084" gradientUnits="userSpaceOnUse">
<stop stop-color="#EE00C8"/>
<stop offset="0.9999" stop-color="#005BC7"/>
<stop offset="1" stop-color="#0009EB"/>
</linearGradient>
<linearGradient id="paint4_linear" x1="109.331" y1="38.2991" x2="109.331" y2="60.0991" gradientUnits="userSpaceOnUse">
<stop stop-color="#EE00C8"/>
<stop offset="0.9999" stop-color="#005BC7"/>
<stop offset="1" stop-color="#0009EB"/>
</linearGradient>
<linearGradient id="paint5_linear" x1="109.331" y1="64.5084" x2="109.331" y2="86.3084" gradientUnits="userSpaceOnUse">
<stop stop-color="#EE00C8"/>
<stop offset="0.9999" stop-color="#005BC7"/>
<stop offset="1" stop-color="#0009EB"/>
</linearGradient>
<linearGradient id="paint6_linear" x1="127.193" y1="96.7631" x2="127.193" y2="103.013" gradientUnits="userSpaceOnUse">
<stop stop-color="#EE00C8"/>
<stop offset="0.9999" stop-color="#005BC7"/>
<stop offset="1" stop-color="#0009EB"/>
</linearGradient>
<clipPath id="clip0">
<rect width="160" height="160" fill="white"/>
</clipPath>
</defs>
</svg>
