<svg width="210" height="130" viewBox="0 0 210 130" fill="none" xmlns="http://www.w3.org/2000/svg">
<path d="M209.371 102.465H0.548092C0.402729 102.465 0.263327 102.407 0.16054 102.304C0.0577531 102.201 0 102.062 0 101.916C0 101.771 0.0577531 101.631 0.16054 101.528C0.263327 101.425 0.402729 101.367 0.548092 101.367H209.371C209.516 101.367 209.656 101.425 209.759 101.528C209.861 101.631 209.919 101.771 209.919 101.916C209.919 102.062 209.861 102.201 209.759 102.304C209.656 102.407 209.516 102.465 209.371 102.465Z" fill="#3F3D56"/>
<path d="M109.103 30.5806C117.276 30.5806 123.901 23.9474 123.901 15.7648C123.901 7.58227 117.276 0.949005 109.103 0.949005C100.93 0.949005 94.3041 7.58227 94.3041 15.7648C94.3041 23.9474 100.93 30.5806 109.103 30.5806Z" fill="#2F2E41"/>
<path d="M95.0418 110.875L94.6499 104.159L120.337 99.4484L120.916 109.361L95.0418 110.875Z" fill="#FFB8B8"/>
<path d="M96.2862 99.2498L97.0424 112.202L88.897 112.679L87.6646 91.5715C88.7343 91.5089 89.8058 91.6578 90.818 92.0098C91.8302 92.3618 92.7632 92.91 93.5638 93.623C94.3644 94.336 95.0169 95.1998 95.484 96.1653C95.9511 97.1308 96.2237 98.1789 96.2862 99.2498Z" fill="#2F2E41"/>
<path d="M106.214 110.813L101.947 116.01L79.8942 102.007L86.1912 94.3369L106.214 110.813Z" fill="#FFB8B8"/>
<path d="M97.4164 118.502L105.645 108.479L111.948 113.666L98.5389 130C97.7111 129.319 97.0254 128.481 96.521 127.535C96.0166 126.588 95.7034 125.551 95.5991 124.484C95.4949 123.416 95.6018 122.338 95.9136 121.312C96.2254 120.286 96.736 119.331 97.4164 118.502V118.502Z" fill="#2F2E41"/>
<path d="M93.9356 86.6448L91.0199 100.406C90.9527 100.723 90.9565 101.051 91.0308 101.366C91.1052 101.682 91.2483 101.976 91.4499 102.23C91.6516 102.483 91.9067 102.689 92.197 102.832C92.4873 102.974 92.8057 103.051 93.1292 103.057L121.793 103.519C122.116 103.525 122.437 103.458 122.731 103.325C123.026 103.192 123.287 102.995 123.497 102.749C123.706 102.503 123.859 102.213 123.944 101.901C124.029 101.589 124.044 101.262 123.988 100.943L121.48 86.7188C121.391 86.2107 121.125 85.7504 120.73 85.4187C120.336 85.0871 119.837 84.9053 119.321 84.9053H96.0802C95.5778 84.9053 95.0906 85.0781 94.7002 85.3948C94.3098 85.7114 94.0398 86.1527 93.9356 86.6448V86.6448Z" fill="#2F2E41"/>
<path d="M98.6889 91.4901C98.6889 91.4901 70.7362 73.9306 65.2553 83.2591C62.5148 87.9234 63.885 92.4504 65.9404 95.8114C67.8478 98.8717 70.5857 101.325 73.8343 102.885L96.4965 113.988L104.718 105.208L99.237 100.27L98.6889 91.4901Z" fill="#2F2E41"/>
<path d="M112.939 88.7464C112.939 88.7464 149.113 78.3205 141.988 98.0749C134.863 117.829 108.006 110.147 108.006 110.147L105.266 101.916L114.584 95.3312L112.939 88.7464Z" fill="#2F2E41"/>
<path d="M109.288 32.6254C116.723 32.6254 122.75 26.5914 122.75 19.148C122.75 11.7046 116.723 5.6705 109.288 5.6705C101.853 5.6705 95.8265 11.7046 95.8265 19.148C95.8265 26.5914 101.853 32.6254 109.288 32.6254Z" fill="#FFB8B8"/>
<path d="M109.994 90.9243C104.4 90.8395 98.8347 90.1055 93.4099 88.7368L93.2496 88.6929L85.7376 54.098C85.0619 51.058 85.5213 47.8755 87.0293 45.1516C88.5372 42.4276 90.9892 40.3507 93.9222 39.3132C102.982 36.0588 112.857 35.8614 122.039 38.7511H122.039C125.12 39.7452 127.714 41.8657 129.302 44.6897C130.891 47.5137 131.357 50.8334 130.609 53.9865L122.218 88.6639L122.1 88.7202C118.613 90.3739 114.253 90.9243 109.994 90.9243Z" fill="#CCCCCC"/>
<path d="M99.9031 93.6117C100.176 92.8526 100.612 92.1627 101.18 91.5905C101.747 91.0183 102.434 90.5777 103.19 90.2998C103.947 90.0219 104.755 89.9134 105.558 89.9819C106.36 90.0505 107.138 90.2945 107.837 90.6967L122.628 77.8429L123.966 87.9442L109.715 98.6018C108.963 99.7318 107.822 100.546 106.51 100.89C105.198 101.235 103.805 101.085 102.595 100.47C101.386 99.855 100.444 98.8171 99.9475 97.5531C99.4513 96.289 99.4355 94.8866 99.9031 93.6117V93.6117Z" fill="#FFB8B8"/>
<path d="M114.01 96.4153C113.769 96.4151 113.53 96.3799 113.299 96.3108C112.925 96.2018 112.582 96.0045 112.3 95.7357C112.017 95.4668 111.803 95.1341 111.676 94.7654L109.89 89.7014C109.723 89.2334 109.702 88.7256 109.829 88.2452C109.957 87.7649 110.227 87.3346 110.604 87.0113L130.757 74.8984L122.813 39.4167L123.015 39.3679C123.097 39.3476 131.236 37.4929 134.571 46.3975C136.907 52.634 145.551 66.1942 144.941 75.3577C144.825 77.1906 144.095 78.931 142.87 80.2977C141.645 81.6645 139.995 82.5779 138.187 82.8904L115.503 95.9025C115.075 96.2342 114.55 96.4145 114.01 96.4153Z" fill="#CCCCCC"/>
<path d="M116.27 92.408C115.997 91.649 115.561 90.959 114.994 90.3868C114.426 89.8146 113.739 89.374 112.983 89.0961C112.226 88.8182 111.418 88.7097 110.616 88.7783C109.813 88.8468 109.035 89.0908 108.336 89.493L93.5451 76.6392L92.2069 86.7405L106.458 97.3981C107.211 98.528 108.351 99.3424 109.663 99.6867C110.976 100.031 112.368 99.8815 113.578 99.2664C114.787 98.6513 115.729 97.6134 116.226 96.3493C116.722 95.0853 116.738 93.6829 116.27 92.408V92.408Z" fill="#FFB8B8"/>
<path d="M103.647 96.4153C103.107 96.4145 102.582 96.2341 102.154 95.9025L77.8257 83.9879C76.0179 83.6753 74.3682 82.762 73.1428 81.3952C71.9174 80.0284 71.1879 78.2881 71.0721 76.4551C70.4623 67.2917 80.75 52.634 83.0857 46.3975C86.4208 37.4929 94.5603 39.347 94.6426 39.3679L94.8446 39.4167L85.2562 75.9959L107.053 87.0113C107.43 87.3346 107.7 87.7649 107.828 88.2452C107.955 88.7256 107.934 89.2334 107.767 89.7014L105.982 94.7654C105.854 95.1341 105.64 95.4668 105.357 95.7357C105.075 96.0045 104.732 96.2017 104.358 96.3108C104.127 96.3799 103.888 96.4151 103.647 96.4153V96.4153Z" fill="#CCCCCC"/>
<path d="M132.671 101.916H83.8904C82.8732 101.915 81.898 101.51 81.1788 100.79C80.4595 100.07 80.0549 99.0932 80.0538 98.0749V71.1869C80.0549 70.1685 80.4595 69.1922 81.1788 68.4721C81.898 67.752 82.8732 67.347 83.8904 67.3458H132.671C133.688 67.347 134.663 67.752 135.382 68.4721C136.101 69.1922 136.506 70.1685 136.507 71.1869V98.0749C136.506 99.0932 136.101 100.07 135.382 100.79C134.663 101.51 133.688 101.915 132.671 101.916V101.916Z" fill="#8E8E8E"/>
<path d="M108.28 87.9234C110.097 87.9234 111.569 86.4493 111.569 84.631C111.569 82.8126 110.097 81.3386 108.28 81.3386C106.464 81.3386 104.992 82.8126 104.992 84.631C104.992 86.4493 106.464 87.9234 108.28 87.9234Z" fill="white"/>
<path d="M95.6916 18.5994C94.8938 16.5733 96.2028 14.1588 98.1447 13.1774C100.087 12.1959 102.43 12.3826 104.507 13.0294C106.253 13.573 107.889 14.4154 109.592 15.0808C111.271 15.8257 113.105 16.1527 114.937 16.0339C116.754 15.8285 118.562 14.8087 119.305 13.1366C120.075 11.4034 119.551 9.28827 118.365 7.80908C117.102 6.37906 115.469 5.32768 113.645 4.77193C109.64 3.35925 105.013 3.31796 101.295 5.37142C97.5768 7.42489 95.0499 11.7972 95.8184 15.9785" fill="#2F2E41"/>
<path d="M17.902 96.0547C18.5792 88.7536 20.4494 81.6133 23.438 74.919C24.271 73.0561 25.1878 71.2341 26.1884 69.4532C26.2386 69.3601 26.2507 69.251 26.2222 69.1491C26.1936 69.0472 26.1266 68.9605 26.0354 68.9071C25.9441 68.8537 25.8357 68.8378 25.733 68.8629C25.6303 68.888 25.5414 68.952 25.4849 69.0415C21.846 75.5281 19.2967 82.5693 17.9389 89.8837C17.5612 91.9263 17.2773 93.9833 17.0873 96.0547C17.039 96.5772 17.854 96.5739 17.902 96.0547V96.0547Z" fill="#E6E6E6"/>
<path d="M28.1617 70.7614C31.0115 70.7614 33.3217 68.4485 33.3217 65.5954C33.3217 62.7423 31.0115 60.4294 28.1617 60.4294C25.312 60.4294 23.0018 62.7423 23.0018 65.5954C23.0018 68.4485 25.312 70.7614 28.1617 70.7614Z" fill="white"/>
<path d="M18.4298 96.192C18.8691 91.4554 20.0824 86.8231 22.0213 82.4803C22.5617 81.2717 23.1565 80.0897 23.8056 78.9343C23.8382 78.8739 23.846 78.8032 23.8275 78.7371C23.8089 78.671 23.7655 78.6147 23.7063 78.58C23.6471 78.5454 23.5768 78.5351 23.5102 78.5514C23.4435 78.5677 23.3858 78.6092 23.3492 78.6672C20.9885 82.8754 19.3346 87.4433 18.4538 92.1885C18.2087 93.5136 18.0246 94.8481 17.9013 96.192C17.87 96.5309 18.3987 96.5288 18.4299 96.192H18.4298Z" fill="#E6E6E6"/>
<path d="M25.0858 79.783C26.9346 79.783 28.4333 78.2825 28.4333 76.4316C28.4333 74.5806 26.9346 73.0801 25.0858 73.0801C23.237 73.0801 21.7383 74.5806 21.7383 76.4316C21.7383 78.2825 23.237 79.783 25.0858 79.783Z" fill="white"/>
<path d="M17.7627 95.8756C15.1992 91.8704 13.3101 87.4708 12.1709 82.8526C11.8545 81.5669 11.5973 80.2687 11.3994 78.958C11.3879 78.8903 11.3507 78.8297 11.2955 78.789C11.2403 78.7482 11.1714 78.7306 11.1034 78.7397C11.0354 78.7488 10.9737 78.7841 10.9311 78.8379C10.8886 78.8918 10.8686 78.9601 10.8754 79.0284C11.5993 83.8002 13.1015 88.4203 15.3221 92.7042C15.943 93.9 16.6176 95.0655 17.346 96.201C17.5295 96.4876 17.9451 96.1603 17.7627 95.8756V95.8756Z" fill="#E6E6E6"/>
<path d="M10.8712 79.5477C12.72 79.5477 14.2187 78.0472 14.2187 76.1963C14.2187 74.3454 12.72 72.8449 10.8712 72.8449C9.02245 72.8449 7.52373 74.3454 7.52373 76.1963C7.52373 78.0472 9.02245 79.5477 10.8712 79.5477Z" fill="white"/>
<path d="M7.48615 98.8408V92.256C7.48688 91.6013 7.74698 90.9737 8.20936 90.5107C8.67174 90.0478 9.29865 89.7874 9.95256 89.7867H25.2991C25.953 89.7874 26.5799 90.0478 27.0423 90.5107C27.5047 90.9737 27.7648 91.6013 27.7655 92.256V98.8408C27.7648 99.4955 27.5047 100.123 27.0423 100.586C26.5799 101.049 25.953 101.309 25.2991 101.31H9.95256C9.29865 101.309 8.67174 101.049 8.20936 100.586C7.74698 100.123 7.48688 99.4955 7.48615 98.8408V98.8408Z" fill="#8E8E8E"/>
<path d="M172.325 106.526C172.325 110.135 169.403 111.775 165.798 111.775C162.193 111.775 159.271 110.135 159.271 106.526C159.271 102.917 160.721 98.7057 165.798 100.158C170.874 97.9796 172.325 102.917 172.325 106.526Z" fill="#CECCE0"/>
<path d="M165.48 101.848C165.226 101.849 164.981 101.757 164.79 101.589C164.599 101.422 164.476 101.19 164.443 100.938C164.227 99.1375 163.036 95.6109 162.534 94.1785L162.534 94.178C162.483 94.0356 162.467 93.883 162.488 93.7333C162.509 93.5836 162.566 93.4413 162.654 93.3184C162.739 93.2086 162.845 93.1179 162.967 93.0523C163.089 92.9866 163.223 92.9475 163.361 92.9375C163.499 92.9276 163.637 92.947 163.767 92.9944C163.897 93.0419 164.015 93.1163 164.114 93.2129C164.203 93.3058 164.271 93.4159 164.315 93.5363C164.359 93.6568 164.378 93.7851 164.371 93.9133C164.273 95.7518 165.611 98.7227 166.418 100.33C166.494 100.482 166.532 100.65 166.529 100.819C166.526 100.989 166.482 101.155 166.401 101.304C166.32 101.453 166.203 101.58 166.062 101.673C165.921 101.767 165.759 101.825 165.59 101.843C165.554 101.847 165.517 101.849 165.48 101.848V101.848Z" fill="#3F3D56"/>
<path d="M170.31 97.7926C172.575 95.936 170.798 92.1364 167.962 92.8658C167.58 92.9571 167.229 93.1449 166.94 93.4114C165.201 95.0565 164.931 99.2659 164.931 99.2659C164.931 99.2659 168.003 99.6825 170.31 97.7926Z" fill="#3F3D56"/>
</svg>
