<svg width="462" height="179" viewBox="0 0 462 179" fill="none" xmlns="http://www.w3.org/2000/svg">
<path d="M445 31C445 24.3726 439.627 19 433 19H27C20.3726 19 15 24.3726 15 31V61.016V125V132.029C15 142.72 27.9257 148.074 35.4853 140.515L47.4853 128.515C49.7357 126.264 52.788 125 55.9706 125H433C439.627 125 445 119.627 445 113V31Z" fill="url(#paint0_linear)"/>
<path d="M119.864 140.34H124.076L127.604 161.544H128.36L133.04 140.412H137.72L142.4 161.544H143.192L146.72 140.34H150.932L146.072 165H139.628L135.38 145.236L131.168 165H124.688L119.864 140.34ZM166.29 161.76L167.298 161.652L167.37 164.568C164.634 165.12 162.21 165.396 160.098 165.396C157.434 165.396 155.514 164.664 154.338 163.2C153.186 161.736 152.61 159.396 152.61 156.18C152.61 149.796 155.214 146.604 160.422 146.604C165.462 146.604 167.982 149.352 167.982 154.848L167.73 157.656H156.57C156.594 159.144 156.918 160.236 157.542 160.932C158.166 161.628 159.33 161.976 161.034 161.976C162.738 161.976 164.49 161.904 166.29 161.76ZM164.13 154.632C164.13 152.856 163.842 151.62 163.266 150.924C162.714 150.204 161.766 149.844 160.422 149.844C159.078 149.844 158.094 150.216 157.47 150.96C156.87 151.704 156.558 152.928 156.534 154.632H164.13ZM180.143 146.604C182.615 146.604 184.391 147.3 185.471 148.692C186.575 150.06 187.127 152.496 187.127 156C187.127 159.504 186.479 161.952 185.183 163.344C183.887 164.712 181.607 165.396 178.343 165.396C177.215 165.396 175.427 165.288 172.979 165.072L171.755 164.964V139.512H175.643V147.684C177.299 146.964 178.799 146.604 180.143 146.604ZM178.343 161.904C180.263 161.904 181.535 161.46 182.159 160.572C182.807 159.66 183.131 158.124 183.131 155.964C183.131 153.804 182.855 152.292 182.303 151.428C181.775 150.54 180.899 150.096 179.675 150.096C178.523 150.096 177.371 150.276 176.219 150.636L175.643 150.816V161.76C176.963 161.856 177.863 161.904 178.343 161.904ZM206.67 143.436C203.622 143.436 202.098 144.504 202.098 146.64C202.098 147.744 202.458 148.536 203.178 149.016C203.898 149.472 205.482 150.048 207.93 150.744C210.402 151.416 212.142 152.232 213.15 153.192C214.158 154.128 214.662 155.616 214.662 157.656C214.662 160.248 213.918 162.192 212.43 163.488C210.966 164.76 208.962 165.396 206.418 165.396C204.378 165.396 202.122 165.156 199.65 164.676L198.354 164.424L198.75 161.22C201.99 161.652 204.462 161.868 206.166 161.868C209.142 161.868 210.63 160.548 210.63 157.908C210.63 156.876 210.294 156.12 209.622 155.64C208.95 155.136 207.438 154.596 205.086 154.02C202.734 153.42 200.982 152.604 199.83 151.572C198.678 150.54 198.102 148.908 198.102 146.676C198.102 144.444 198.822 142.764 200.262 141.636C201.726 140.484 203.742 139.908 206.31 139.908C208.158 139.908 210.342 140.124 212.862 140.556L214.122 140.772L213.798 144.012C210.438 143.628 208.062 143.436 206.67 143.436ZM219.485 148.944C220.733 147.384 222.797 146.604 225.677 146.604C228.557 146.604 230.609 147.384 231.833 148.944C233.081 150.504 233.705 152.844 233.705 155.964C233.705 159.084 233.105 161.436 231.905 163.02C230.705 164.604 228.629 165.396 225.677 165.396C222.725 165.396 220.649 164.604 219.449 163.02C218.249 161.436 217.649 159.084 217.649 155.964C217.649 152.844 218.261 150.504 219.485 148.944ZM222.437 160.644C222.989 161.604 224.069 162.084 225.677 162.084C227.285 162.084 228.365 161.604 228.917 160.644C229.469 159.684 229.745 158.112 229.745 155.928C229.745 153.744 229.445 152.196 228.845 151.284C228.269 150.372 227.213 149.916 225.677 149.916C224.141 149.916 223.073 150.372 222.473 151.284C221.897 152.196 221.609 153.744 221.609 155.928C221.609 158.112 221.885 159.684 222.437 160.644ZM237.819 165V139.512H241.743V165H237.819ZM257.616 147H261.504V165H257.616V163.884C255.864 164.892 254.244 165.396 252.756 165.396C250.284 165.396 248.628 164.736 247.788 163.416C246.948 162.072 246.528 159.732 246.528 156.396V147H250.452V156.432C250.452 158.592 250.632 160.044 250.992 160.788C251.352 161.532 252.192 161.904 253.512 161.904C254.808 161.904 255.996 161.664 257.076 161.184L257.616 160.968V147ZM275.939 150.348H270.971V158.268C270.971 159.732 271.079 160.704 271.295 161.184C271.511 161.664 272.063 161.904 272.951 161.904L275.903 161.796L276.083 164.928C274.475 165.24 273.251 165.396 272.411 165.396C270.371 165.396 268.967 164.928 268.199 163.992C267.455 163.056 267.083 161.292 267.083 158.7V150.348H264.779V147H267.083V141.78H270.971V147H275.939V150.348ZM279.157 165V147H283.081V165H279.157ZM279.157 143.94V139.8H283.081V143.94H279.157ZM288.813 148.944C290.061 147.384 292.125 146.604 295.005 146.604C297.885 146.604 299.937 147.384 301.161 148.944C302.409 150.504 303.033 152.844 303.033 155.964C303.033 159.084 302.433 161.436 301.233 163.02C300.033 164.604 297.957 165.396 295.005 165.396C292.053 165.396 289.977 164.604 288.777 163.02C287.577 161.436 286.977 159.084 286.977 155.964C286.977 152.844 287.589 150.504 288.813 148.944ZM291.765 160.644C292.317 161.604 293.397 162.084 295.005 162.084C296.613 162.084 297.693 161.604 298.245 160.644C298.797 159.684 299.073 158.112 299.073 155.928C299.073 153.744 298.773 152.196 298.173 151.284C297.597 150.372 296.541 149.916 295.005 149.916C293.469 149.916 292.401 150.372 291.801 151.284C291.225 152.196 290.937 153.744 290.937 155.928C290.937 158.112 291.213 159.684 291.765 160.644ZM310.855 165H306.931V147H310.819V148.116C312.571 147.108 314.227 146.604 315.787 146.604C318.187 146.604 319.819 147.288 320.683 148.656C321.571 150 322.015 152.232 322.015 155.352V165H318.127V155.46C318.127 153.516 317.911 152.136 317.479 151.32C317.071 150.504 316.219 150.096 314.923 150.096C313.699 150.096 312.523 150.336 311.395 150.816L310.855 151.032V165ZM339.075 150.708C336.243 150.324 334.191 150.132 332.919 150.132C331.647 150.132 330.759 150.288 330.255 150.6C329.775 150.888 329.535 151.356 329.535 152.004C329.535 152.652 329.799 153.108 330.327 153.372C330.879 153.636 332.151 153.948 334.143 154.308C336.159 154.644 337.587 155.184 338.427 155.928C339.267 156.672 339.687 157.992 339.687 159.888C339.687 161.784 339.075 163.176 337.851 164.064C336.651 164.952 334.887 165.396 332.559 165.396C331.095 165.396 329.247 165.192 327.015 164.784L325.899 164.604L326.043 161.328C328.923 161.712 330.999 161.904 332.271 161.904C333.543 161.904 334.443 161.748 334.971 161.436C335.523 161.124 335.799 160.608 335.799 159.888C335.799 159.168 335.535 158.676 335.007 158.412C334.503 158.124 333.267 157.824 331.299 157.512C329.355 157.176 327.927 156.66 327.015 155.964C326.103 155.268 325.647 153.996 325.647 152.148C325.647 150.3 326.271 148.92 327.519 148.008C328.791 147.096 330.411 146.64 332.379 146.64C333.915 146.64 335.799 146.832 338.031 147.216L339.147 147.432L339.075 150.708Z" fill="white"/>
<path d="M97.07 69.265L80.9 76.085L97.07 83.235V89.395L74.52 78.67V73.72L97.07 63.16V69.265ZM119.926 78.285H112.226V90H106.121V52.325H119.926C128.47 52.325 132.741 56.5417 132.741 64.975C132.741 69.3017 131.66 72.6017 129.496 74.875C127.37 77.1483 124.18 78.285 119.926 78.285ZM112.226 73.005H119.871C124.271 73.005 126.471 70.3283 126.471 64.975C126.471 62.4083 125.94 60.5383 124.876 59.365C123.813 58.1917 122.145 57.605 119.871 57.605H112.226V73.005ZM157.481 85.05L159.021 84.885L159.131 89.34C154.951 90.1833 151.248 90.605 148.021 90.605C143.951 90.605 141.018 89.4867 139.221 87.25C137.461 85.0133 136.581 81.4383 136.581 76.525C136.581 66.7717 140.56 61.895 148.516 61.895C156.216 61.895 160.066 66.0933 160.066 74.49L159.681 78.78H142.631C142.668 81.0533 143.163 82.7217 144.116 83.785C145.07 84.8483 146.848 85.38 149.451 85.38C152.055 85.38 154.731 85.27 157.481 85.05ZM154.181 74.16C154.181 71.4467 153.741 69.5583 152.861 68.495C152.018 67.395 150.57 66.845 148.516 66.845C146.463 66.845 144.96 67.4133 144.006 68.55C143.09 69.6867 142.613 71.5567 142.576 74.16H154.181ZM188.271 51.06V90H182.331V88.57C179.655 89.9267 177.198 90.605 174.961 90.605C171.368 90.605 168.728 89.5233 167.041 87.36C165.391 85.1967 164.566 81.5667 164.566 76.47C164.566 71.3733 165.483 67.67 167.316 65.36C169.186 63.05 172.083 61.895 176.006 61.895C177.326 61.895 179.416 62.1333 182.276 62.61V51.06H188.271ZM181.341 84.28L182.276 83.895V67.615C180.076 67.2483 178.041 67.065 176.171 67.065C172.468 67.065 170.616 70.145 170.616 76.305C170.616 79.6783 171.038 82.025 171.881 83.345C172.761 84.6283 174.136 85.27 176.006 85.27C177.876 85.27 179.655 84.94 181.341 84.28ZM195.533 90V62.5H201.473V65.8C204.59 63.7833 207.707 62.4817 210.823 61.895V67.89C207.67 68.5133 204.975 69.32 202.738 70.31L201.528 70.805V90H195.533ZM216.677 65.47C218.583 63.0867 221.737 61.895 226.137 61.895C230.537 61.895 233.672 63.0867 235.542 65.47C237.448 67.8533 238.402 71.4283 238.402 76.195C238.402 80.9617 237.485 84.555 235.652 86.975C233.818 89.395 230.647 90.605 226.137 90.605C221.627 90.605 218.455 89.395 216.622 86.975C214.788 84.555 213.872 80.9617 213.872 76.195C213.872 71.4283 214.807 67.8533 216.677 65.47ZM221.187 83.345C222.03 84.8117 223.68 85.545 226.137 85.545C228.593 85.545 230.243 84.8117 231.087 83.345C231.93 81.8783 232.352 79.4767 232.352 76.14C232.352 72.8033 231.893 70.4383 230.977 69.045C230.097 67.6517 228.483 66.955 226.137 66.955C223.79 66.955 222.158 67.6517 221.242 69.045C220.362 70.4383 219.922 72.8033 219.922 76.14C219.922 79.4767 220.343 81.8783 221.187 83.345ZM250.854 90H244.749V52.325H250.854V69.32L256.464 68.88L264.164 52.325H271.149L261.854 71.245L271.534 90H264.439L256.464 74.27L250.854 74.655V90ZM276.725 65.47C278.632 63.0867 281.785 61.895 286.185 61.895C290.585 61.895 293.72 63.0867 295.59 65.47C297.497 67.8533 298.45 71.4283 298.45 76.195C298.45 80.9617 297.534 84.555 295.7 86.975C293.867 89.395 290.695 90.605 286.185 90.605C281.675 90.605 278.504 89.395 276.67 86.975C274.837 84.555 273.92 80.9617 273.92 76.195C273.92 71.4283 274.855 67.8533 276.725 65.47ZM281.235 83.345C282.079 84.8117 283.729 85.545 286.185 85.545C288.642 85.545 290.292 84.8117 291.135 83.345C291.979 81.8783 292.4 79.4767 292.4 76.14C292.4 72.8033 291.942 70.4383 291.025 69.045C290.145 67.6517 288.532 66.955 286.185 66.955C283.839 66.955 282.207 67.6517 281.29 69.045C280.41 70.4383 279.97 72.8033 279.97 76.14C279.97 79.4767 280.392 81.8783 281.235 83.345ZM304.405 90V62.5H310.345V65.8C313.462 63.7833 316.579 62.4817 319.695 61.895V67.89C316.542 68.5133 313.847 69.32 311.61 70.31L310.4 70.805V90H304.405ZM337.093 61.895C340.87 61.895 343.583 62.9583 345.233 65.085C346.92 67.175 347.763 70.8967 347.763 76.25C347.763 81.6033 346.773 85.3433 344.793 87.47C342.813 89.56 339.33 90.605 334.343 90.605C332.62 90.605 329.888 90.44 326.148 90.11L324.278 89.945V51.06H330.218V63.545C332.748 62.445 335.04 61.895 337.093 61.895ZM334.343 85.27C337.277 85.27 339.22 84.5917 340.173 83.235C341.163 81.8417 341.658 79.495 341.658 76.195C341.658 72.895 341.237 70.585 340.393 69.265C339.587 67.9083 338.248 67.23 336.378 67.23C334.618 67.23 332.858 67.505 331.098 68.055L330.218 68.33V85.05C332.235 85.1967 333.61 85.27 334.343 85.27ZM363.981 89.505L379.656 50.73L384.936 52.655L369.206 91.375L363.981 89.505ZM407.505 76.085L391.335 69.265V63.16L413.885 73.72V78.67L391.335 89.395V83.235L407.505 76.085Z" fill="white"/>
<defs>
<linearGradient id="paint0_linear" x1="-17.5" y1="125.5" x2="458.5" y2="41" gradientUnits="userSpaceOnUse">
<stop stop-color="#00229B"/>
<stop offset="0.489583" stop-color="#BA00FB"/>
<stop offset="0.979167" stop-color="#00E1EF"/>
</linearGradient>
</defs>
</svg>
